<svg width="47" height="36" viewBox="0 0 47 36" fill="none" xmlns="http://www.w3.org/2000/svg">
  <g clip-path="url(#clip0_4_2)">
    <path d="M22.5 35.9961C32.165 35.9961 40 28.162 40 18.4981C40 8.8341 32.165 1 22.5 1C12.835 1 5 8.8341 5 18.4981C5 28.162 12.835 35.9961 22.5 35.9961Z" fill="#718EF7" />
    <path d="M30.5237 10.8877L27.4191 7.78339L25.5015 9.70079L28.6061 12.8051L30.5237 10.8877Z" fill="#F7E080" />
    <path d="M30.5252 10.8838L27.4205 7.77948L29.5028 7.63428L30.6704 8.80168L30.5252 10.8838Z" fill="#F7E080" />
    <path d="M27.7918 3.9113C28.1098 3.91263 28.4202 4.0078 28.6843 4.1849C28.9483 4.362 29.1542 4.6132 29.276 4.9068C29.3979 5.2005 29.4303 5.5235 29.3692 5.8355C29.308 6.1475 29.1561 6.4345 28.9325 6.6605C28.6265 6.9456 28.2218 7.1008 27.8036 7.0934C27.3854 7.0861 26.9864 6.9167 26.6907 6.621C26.3949 6.3252 26.2255 5.9263 26.2181 5.5082C26.2108 5.09 26.366 4.6853 26.6511 4.3794C26.9544 4.0786 27.3646 3.91025 27.7918 3.9113ZM27.7918 1.86688C26.9454 1.86606 26.125 2.15865 25.4701 2.69482C24.8153 3.231 24.3666 3.97759 24.2005 4.8074C24.0345 5.6372 24.1612 6.499 24.5593 7.2458C24.9573 7.9927 25.602 8.5785 26.3835 8.9034C27.165 9.2283 28.035 9.2722 28.8453 9.0278C29.6556 8.7833 30.356 8.2655 30.8273 7.5625C31.2986 6.8596 31.5116 6.015 31.4301 5.1727C31.3485 4.3303 30.9774 3.54234 30.3799 2.94289C30.0408 2.60178 29.6375 2.33111 29.1933 2.14644C28.7492 1.96177 28.2729 1.86677 27.7918 1.86688Z" fill="#F7E080" />
    <path d="M32.8012 8.92008C33.2292 8.92048 33.6395 9.09079 33.9419 9.39349C34.2058 9.65779 34.37 10.0053 34.4063 10.377C34.4427 10.7486 34.349 11.1214 34.1413 11.4317C33.9336 11.7421 33.6247 11.9708 33.2673 12.079C32.9098 12.1871 32.5259 12.168 32.1809 12.0248C31.836 11.8816 31.5514 11.6233 31.3756 11.2938C31.1998 10.9644 31.1437 10.5841 31.2169 10.2179C31.29 9.85178 31.4879 9.52228 31.7768 9.28558C32.0657 9.04888 32.4277 8.91978 32.8012 8.92008ZM32.8012 6.87568C31.9548 6.87488 31.1344 7.16748 30.4795 7.70358C29.8247 8.23978 29.376 8.98638 29.2099 9.81618C29.0439 10.646 29.1706 11.5078 29.5687 12.2546C29.9667 13.0015 30.6114 13.5873 31.3929 13.9122C32.1744 14.2371 33.0444 14.281 33.8547 14.0366C34.665 13.7921 35.3654 13.2743 35.8367 12.5713C36.308 11.8684 36.521 11.0238 36.4394 10.1815C36.3579 9.33908 35.9867 8.55108 35.3893 7.95168C35.0509 7.60958 34.6478 7.33828 34.2034 7.15358C33.7591 6.96878 33.2824 6.87438 32.8012 6.87568Z" fill="#F7E080" />
    <path d="M34.6468 2.04442C35.0747 2.0448 35.4851 2.2151 35.7875 2.51787C36.0111 2.74386 36.163 3.03086 36.2241 3.34284C36.2852 3.65483 36.2528 3.97792 36.131 4.2716C36.0092 4.5652 35.8033 4.8163 35.5393 4.9935C35.2752 5.1706 34.9647 5.2657 34.6468 5.2671C34.3288 5.2657 34.0184 5.1706 33.7543 4.9935C33.4903 4.8163 33.2844 4.5652 33.1626 4.2716C33.0407 3.97792 33.0083 3.65483 33.0694 3.34284C33.1306 3.03086 33.2825 2.74386 33.5061 2.51787C33.8085 2.2151 34.2188 2.0448 34.6468 2.04442ZM34.6468 3.67803e-06C34.1548 -0.0188663 33.6642 0.0617236 33.2041 0.236934C32.7441 0.412154 32.3241 0.678394 31.9694 1.01972C31.6147 1.36105 31.3325 1.77044 31.1397 2.22339C30.947 2.67633 30.8477 3.16351 30.8477 3.65575C30.8477 4.148 30.947 4.6352 31.1397 5.0881C31.3325 5.5411 31.6147 5.9505 31.9694 6.2918C32.3241 6.6331 32.7441 6.8994 33.2041 7.0746C33.6642 7.2498 34.1548 7.3304 34.6468 7.3115C35.368 7.3087 36.0724 7.0928 36.6713 6.6909C37.2702 6.2891 37.7369 5.7192 38.0129 5.0529C38.2889 4.3866 38.3618 3.65365 38.2224 2.94607C38.083 2.23849 37.7376 1.58789 37.2295 1.07602C36.8917 0.734593 36.4895 0.463654 36.0461 0.278944C35.6027 0.0942239 35.1271 -0.000586322 34.6468 3.67803e-06Z" fill="#F7E080" />
    <path d="M32.0385 23.525L26.2249 29.3379C25.239 30.3236 23.9019 30.8774 22.5077 30.8774C21.1135 30.8774 19.7764 30.3236 18.7905 29.3379L14.9249 25.4728L28.5724 11.8268L32.0385 15.2925C33.1303 16.3842 33.7437 17.8649 33.7437 19.4088C33.7437 20.9526 33.1303 22.4333 32.0385 23.525Z" fill="#EBF0F7" />
    <path d="M21.1952 17.9532L26.7158 17.0063L26.6135 18.4428C26.4141 20.3955 26.6625 22.368 27.3399 24.2102C27.683 25.0594 27.7685 25.9907 27.5858 26.8882C27.403 27.7856 26.9601 28.6093 26.3122 29.2567L25.8064 29.7947C24.9318 30.6677 23.7466 31.1579 22.5108 31.1579C21.275 31.1579 20.0898 30.6677 19.2151 29.7947L14.3026 24.8774L21.1952 17.9532Z" fill="#B2C1D1" />
    <path d="M28.5936 12.8045L25.4997 9.68408L5.33838 29.8593L8.22779 32.7484C8.28517 32.8049 8.36248 32.8366 8.44302 32.8366C8.52356 32.8366 8.60086 32.8049 8.65824 32.7484L28.5936 12.8045Z" fill="#F7E080" />
    <path d="M11.6607 24.6998L5.91949 30.4403L0.33438 24.8558C0.25125 24.7722 0.20459 24.659 0.20459 24.5411C0.20459 24.4232 0.25125 24.31 0.33438 24.2264L1.77639 22.7845C1.87661 22.682 1.9963 22.6006 2.12843 22.545C2.26056 22.4894 2.40247 22.4608 2.54582 22.4608C2.68918 22.4608 2.83108 22.4894 2.96322 22.545C3.09535 22.6006 3.21504 22.682 3.31526 22.7845L3.44977 22.9136C3.58085 23.0564 3.67452 23.2294 3.72241 23.4171C3.77029 23.6049 3.7709 23.8016 3.72419 23.9897C3.63949 24.3964 3.68933 24.8196 3.8662 25.1955C4.04306 25.5714 4.33736 25.8796 4.70471 26.0736C5.07207 26.2677 5.49256 26.337 5.90279 26.2712C6.31301 26.2055 6.69073 26.0081 6.97898 25.7089C7.26722 25.4098 7.45038 25.025 7.50082 24.6126C7.55126 24.2003 7.46625 23.7827 7.25861 23.4229C7.05098 23.0631 6.73197 22.7805 6.34969 22.6178C5.96742 22.4551 5.5426 22.4211 5.1393 22.5209C4.97422 22.5694 4.79928 22.5735 4.63208 22.5329C4.46489 22.4923 4.31135 22.4084 4.18692 22.2896L3.89099 21.9937C3.7152 21.8172 3.6165 21.5783 3.6165 21.3292C3.6165 21.0802 3.7152 20.8412 3.89099 20.6648L5.45676 19.1153C5.49773 19.0743 5.54638 19.0418 5.59993 19.0196C5.65348 18.9974 5.71087 18.986 5.76883 18.986C5.8268 18.986 5.88419 18.9974 5.93774 19.0196C5.99129 19.0418 6.03994 19.0743 6.08091 19.1153L11.6607 24.6998Z" fill="#F7E080" />
    <path d="M10.1759 31.2353L7.07131 28.131L6.47778 28.7244L9.58242 31.8287L10.1759 31.2353Z" fill="#F5B312" />
    <path d="M15.4287 25.98L12.3241 22.8757L11.0762 24.1235L14.1808 27.2278L15.4287 25.98Z" fill="#F5B312" />
    <path d="M25.9811 18.7889L25.9849 18.7851C26.9641 17.806 26.9641 16.2186 25.9849 15.2395L22.2411 11.4961C21.2619 10.5171 19.6743 10.5171 18.6951 11.4961L18.6913 11.4999C17.7121 12.479 17.7121 14.0664 18.6913 15.0455L22.4352 18.7889C23.4144 19.768 25.0019 19.768 25.9811 18.7889Z" fill="#CBD5E0" />
    <path d="M22.4337 22.3415L22.4375 22.3377C23.4167 21.3586 23.4167 19.7712 22.4375 18.7922L18.6936 15.0487C17.7144 14.0697 16.1269 14.0697 15.1477 15.0487L15.1439 15.0525C14.1647 16.0316 14.1647 17.619 15.1439 18.5981L18.8877 22.3415C19.8669 23.3206 21.4545 23.3206 22.4337 22.3415Z" fill="#CBD5E0" />
    <path d="M18.8841 25.8887L18.8879 25.8849C19.8671 24.9058 19.8671 23.3184 18.8879 22.3393L15.1441 18.5959C14.1649 17.6168 12.5773 17.6168 11.5981 18.5959L11.5943 18.5997C10.6151 19.5788 10.6151 21.1662 11.5943 22.1453L15.3381 25.8887C16.3173 26.8678 17.9049 26.8678 18.8841 25.8887Z" fill="#CBD5E0" />
    <path d="M29.3684 13.6599V13.6546C29.3684 12.2699 28.2458 11.1475 26.861 11.1475H22.4812C21.0964 11.1475 19.9738 12.2699 19.9738 13.6546V13.6599C19.9738 15.0446 21.0964 16.167 22.4812 16.167H26.861C28.2458 16.167 29.3684 15.0446 29.3684 13.6599Z" fill="#EBF0F7" />
    <path d="M24.6423 31.7917L34.2758 22.1593L33.4311 21.3148L23.7976 30.9472L24.6423 31.7917Z" fill="url(#paint0_linear_4_2)" />
    <path d="M26.178 33.3244L35.7163 23.7871C36.2143 23.2892 36.2152 22.4827 35.7182 21.9858C35.2213 21.4889 34.4147 21.4897 33.9167 21.9877L24.3783 31.525C23.8803 32.0229 23.8795 32.8294 24.3764 33.3263C24.8734 33.8232 25.6799 33.8224 26.178 33.3244Z" fill="#EBF0F7" />
    <path d="M41.0605 6.97789C41.0605 6.79369 40.9123 6.64429 40.7296 6.64429C40.5468 6.64429 40.3987 6.79369 40.3987 6.97789V7.30609C40.3987 7.49029 40.5468 7.63969 40.7296 7.63969C40.9123 7.63969 41.0605 7.49029 41.0605 7.30609V6.97789Z" fill="#F7D036" />
    <path d="M41.0605 9.63031C41.0605 9.44611 40.9123 9.29681 40.7296 9.29681C40.5468 9.29681 40.3987 9.44611 40.3987 9.63031V9.95851C40.3987 10.1427 40.5468 10.2921 40.7296 10.2921C40.9123 10.2921 41.0605 10.1427 41.0605 9.95851V9.63031Z" fill="#F7D036" />
    <path d="M42.2173 8.80181C42.4016 8.80181 42.5509 8.65361 42.5509 8.47091C42.5509 8.28821 42.4016 8.14001 42.2173 8.14001H41.8891C41.7049 8.14001 41.5555 8.28821 41.5555 8.47091C41.5555 8.65361 41.7049 8.80181 41.8891 8.80181H42.2173Z" fill="#F7D036" />
    <path d="M39.5648 8.80181C39.7491 8.80181 39.8984 8.65361 39.8984 8.47091C39.8984 8.28821 39.7491 8.14001 39.5648 8.14001H39.2366C39.0524 8.14001 38.903 8.28821 38.903 8.47091C38.903 8.65361 39.0524 8.80181 39.2366 8.80181H39.5648Z" fill="#F7D036" />
    <path d="M42.3735 27.024C42.3735 26.7833 42.1796 26.5882 41.9403 26.5882C41.7011 26.5882 41.5072 26.7833 41.5072 27.024V27.4544C41.5072 27.6951 41.7011 27.8902 41.9403 27.8902C42.1796 27.8902 42.3735 27.6951 42.3735 27.4544V27.024Z" fill="#F47FFF" />
    <path d="M42.3735 30.4941C42.3735 30.2535 42.1796 30.0583 41.9403 30.0583C41.7011 30.0583 41.5072 30.2535 41.5072 30.4941V30.9245C41.5072 31.1652 41.7011 31.3603 41.9403 31.3603C42.1796 31.3603 42.3735 31.1652 42.3735 30.9245V30.4941Z" fill="#F47FFF" />
    <path d="M43.8907 29.402C44.1314 29.402 44.3265 29.2081 44.3265 28.9689C44.3265 28.7297 44.1314 28.5358 43.8907 28.5358H43.4602C43.2195 28.5358 43.0244 28.7297 43.0244 28.9689C43.0244 29.2081 43.2195 29.402 43.4602 29.402H43.8907Z" fill="#F47FFF" />
    <path d="M40.4256 29.4074C40.6663 29.4074 40.8615 29.2135 40.8615 28.9743C40.8615 28.7351 40.6663 28.5412 40.4256 28.5412H39.9952C39.7545 28.5412 39.5593 28.7351 39.5593 28.9743C39.5593 29.2135 39.7545 29.4074 39.9952 29.4074H40.4256Z" fill="#F47FFF" />
    <path d="M2.73413 11.0237L2.19607 12.1697C2.16618 12.2284 2.15564 12.295 2.16596 12.3601C2.17628 12.4252 2.20693 12.4853 2.25352 12.5319C2.3001 12.5785 2.36024 12.6091 2.42531 12.6194C2.49038 12.6297 2.55705 12.6192 2.61576 12.5893L3.76184 12.0513C3.80522 12.0328 3.85189 12.0233 3.89905 12.0233C3.9462 12.0233 3.99287 12.0328 4.03625 12.0513L5.18233 12.5893C5.24104 12.6192 5.30771 12.6297 5.37278 12.6194C5.43785 12.6091 5.49799 12.5785 5.54458 12.5319C5.59116 12.4853 5.62181 12.4252 5.63213 12.3601C5.64245 12.295 5.63191 12.2284 5.60202 12.1697L5.06396 11.0237C5.04546 10.9803 5.03592 10.9337 5.03592 10.8865C5.03592 10.8394 5.04546 10.7927 5.06396 10.7493L5.60202 9.60341C5.63191 9.54471 5.64245 9.47801 5.63213 9.41291C5.62181 9.34791 5.59116 9.28781 5.54458 9.24121C5.49799 9.19461 5.43785 9.16391 5.37278 9.15361C5.30771 9.14331 5.24104 9.15391 5.18233 9.18371L4.03625 9.72171C3.99365 9.74301 3.94668 9.75411 3.89905 9.75411C3.85141 9.75411 3.80444 9.74301 3.76184 9.72171L2.61576 9.18371C2.55705 9.15391 2.49038 9.14331 2.42531 9.15361C2.36024 9.16391 2.3001 9.19461 2.25352 9.24121C2.20693 9.28781 2.17628 9.34791 2.16596 9.41291C2.15564 9.47801 2.16618 9.54471 2.19607 9.60341L2.73413 10.7493C2.75263 10.7927 2.76217 10.8394 2.76217 10.8865C2.76217 10.9337 2.75263 10.9803 2.73413 11.0237Z" fill="#60CFAC" />
  </g>
  <defs>
    <linearGradient id="paint0_linear_4_2" x1="32.3571" y1="23.2359" x2="26.2776" y2="29.3106" gradientUnits="userSpaceOnUse">
      <stop stop-color="#DAE1EA" />
      <stop offset="1" stop-color="#BECBD8" />
    </linearGradient>
    <clipPath id="clip0_4_2">
      <rect width="47" height="36" fill="white" />
    </clipPath>
  </defs>
</svg>
