<svg width="26" height="20" viewBox="0 0 26 20" fill="currentColor" xmlns="http://www.w3.org/2000/svg">
  <path d="M22.0212 1.67671C20.3107 0.879656 18.5079 0.318797 16.6584 0C16.4062 0.461742 16.1749 0.934541 15.9708 1.4184C14.003 1.12145 11.9974 1.12145 10.0283 1.4184C9.819 0.934541 9.589 0.461744 9.3368 0.00546311C7.48074 0.324393 5.67795 0.885118 3.96746 1.68231C0.567272 6.77853 -0.350332 11.7538 0.111082 16.652C2.10102 18.1418 4.3262 19.2743 6.69177 20C7.22338 19.2743 7.69519 18.4993 8.09812 17.691C7.32996 17.3997 6.58522 17.0424 5.87684 16.6135C6.06531 16.4762 6.24726 16.3387 6.42403 16.1847C10.5911 18.1749 15.408 18.1749 19.5763 16.1847C19.7531 16.3332 19.9351 16.4762 20.1171 16.6135C19.41 17.0369 18.6639 17.3997 17.897 17.691C18.3052 18.4993 18.7718 19.2689 19.3021 19.9945C21.6677 19.2689 23.8929 18.1364 25.8828 16.6466H25.8893C26.43 10.9731 24.9665 6.04728 22.0212 1.67671ZM8.68041 13.6383C7.39754 13.6383 6.34085 12.4453 6.34085 10.994C6.34085 9.54272 7.37155 8.34973 8.68041 8.34973C9.9893 8.34973 11.0395 9.54272 11.0187 10.994C11.0187 12.4453 9.9828 13.6383 8.68041 13.6383ZM17.3161 13.6383C16.0332 13.6383 14.9765 12.4453 14.9765 10.994C14.9765 9.54272 16.0124 8.34973 17.3161 8.34973C18.6184 8.34973 19.6751 9.54272 19.6543 10.994C19.6543 12.4453 18.6184 13.6383 17.3161 13.6383Z" />
</svg>