<svg viewBox="0 0 1700 1200" fill="none" xmlns="http://www.w3.org/2000/svg">
  <g clip-path="url(#clip0_5_273)">
    <path d="M0 0H1700V1200H0V0Z" fill="#5865F2" />
    <path d="M935.8 386.9C933.7 386.9 931.6 387.1 929.5 387.2C921.373 372.097 910.262 358.802 896.841 348.123C883.42 337.445 867.969 329.604 851.426 325.078C834.882 320.552 817.592 319.434 800.604 321.793C783.616 324.152 767.284 329.938 752.6 338.8C738.19 319.177 718.417 304.136 695.659 295.489C672.901 286.842 648.128 284.957 624.324 290.06C600.519 295.163 578.697 307.038 561.483 324.254C544.27 341.47 532.399 363.295 527.3 387.1C524.593 384.94 521.717 383 518.7 381.3C484.5 361.4 440 374.3 419.4 409.9C401 441.6 407.8 480.8 433.8 503C419.6 512.1 410.5 526 410.5 541.6C410.5 569 438.5 591.2 473.2 591.2C485.343 591.278 497.322 588.395 508.1 582.8C519.738 606.709 538.62 626.339 562.059 638.897C585.498 651.454 612.301 656.3 638.653 652.744C665.006 649.189 689.565 637.413 708.838 619.092C728.111 600.771 741.115 576.839 746 550.7C771.434 568.397 802.49 576.118 833.25 572.393C864.011 568.668 892.325 553.757 912.8 530.5C923.86 534.156 935.629 535.135 947.14 533.356C958.652 531.577 969.577 527.091 979.017 520.267C988.457 513.443 996.143 504.476 1001.44 494.104C1006.74 483.731 1009.5 472.248 1009.5 460.6C1009.5 441.054 1001.74 422.308 987.914 408.486C974.092 394.665 955.346 386.9 935.8 386.9Z" fill="#6270FC" />
    <path d="M1210.9 311.8C1197.31 311.829 1184.06 316.093 1173 324C1165.65 309.093 1153.48 297.109 1138.46 289.993C1123.44 282.876 1106.45 281.046 1090.26 284.798C1074.07 288.551 1059.62 297.666 1049.26 310.664C1038.9 323.662 1033.24 339.78 1033.2 356.4C1033.21 360.723 1033.58 365.038 1034.3 369.3C1001.4 384.3 970.2 409.5 946.9 442.1H1210.9C1227.74 441.44 1243.67 434.288 1255.34 422.142C1267.02 409.996 1273.55 393.8 1273.55 376.95C1273.55 360.1 1267.02 343.904 1255.34 331.758C1243.67 319.612 1227.74 312.46 1210.9 311.8Z" fill="#6270FC" />
    <path d="M1035.5 617.4C1046.68 604.3 1054.8 588.874 1059.27 572.241C1063.74 555.609 1064.45 538.19 1061.34 521.25C1058.24 504.31 1051.39 488.276 1041.31 474.313C1031.23 460.349 1018.16 448.808 1003.06 440.529C987.96 432.25 971.203 427.44 954.009 426.45C936.815 425.459 919.616 428.313 903.664 434.804C887.711 441.295 873.406 451.259 861.788 463.973C850.17 476.686 841.531 491.829 836.5 508.3C818.558 496.574 797.755 489.97 776.335 489.2C754.915 488.43 733.692 493.524 714.955 503.932C696.218 514.34 680.678 529.667 670.013 548.259C659.348 566.851 653.962 588.003 654.437 609.431C654.912 630.859 661.229 651.752 672.707 669.853C684.185 687.955 700.388 702.578 719.567 712.146C738.747 721.714 760.175 725.863 781.54 724.146C802.905 722.428 823.395 714.909 840.8 702.4C847.045 715.327 856.823 726.22 869.003 733.82C881.182 741.419 895.265 745.413 909.621 745.34C923.977 745.267 938.018 741.129 950.12 733.406C962.221 725.682 971.888 714.69 978 701.7C983.535 705.476 989.76 708.124 996.319 709.494C1002.88 710.864 1009.64 710.928 1016.23 709.684C1022.81 708.44 1029.08 705.911 1034.69 702.242C1040.3 698.573 1045.12 693.835 1048.9 688.3C1052.68 682.765 1055.32 676.54 1056.69 669.981C1058.06 663.423 1058.13 656.658 1056.88 650.075C1055.64 643.491 1053.11 637.217 1049.44 631.611C1045.77 626.004 1041.04 621.176 1035.5 617.4Z" fill="#707CFF" />
    <path d="M990 243.1H579.4C578.815 243.113 578.24 242.954 577.744 242.644C577.249 242.334 576.854 241.886 576.61 241.354C576.366 240.823 576.282 240.232 576.369 239.654C576.456 239.076 576.71 238.536 577.1 238.1C601.7 208.7 638.5 207.2 678.3 214.9C700.7 128.6 801.3 129.6 835.6 182.7C872.2 154.5 994.6 151.4 995.8 237.2C995.813 237.97 995.673 238.735 995.388 239.45C995.102 240.166 994.677 240.817 994.137 241.366C993.597 241.915 992.953 242.351 992.243 242.649C991.533 242.947 990.77 243.1 990 243.1Z" fill="#6A77FC" />
    <path d="M57.9 530.5C147.1 485.4 210 520.3 210 520.3C254.1 506.6 293 516.2 313 531.9C325.5 541.6 297.5 539.9 234.7 539.9H60.2C58.8739 539.9 57.6021 539.373 56.6645 538.436C55.7268 537.498 55.2 536.226 55.2 534.9C55.196 533.988 55.4466 533.093 55.9236 532.316C56.4006 531.538 57.0851 530.909 57.9 530.5Z" fill="#6874F7" />
    <path d="M1525.8 824.6C1525.61 816.609 1522.67 808.928 1517.48 802.854C1512.28 796.78 1505.15 792.686 1497.29 791.263C1489.42 789.84 1481.3 791.177 1474.31 795.046C1467.32 798.916 1461.87 805.081 1458.9 812.5C1456.34 811.893 1453.73 811.591 1451.1 811.6C1445.8 811.605 1440.56 812.772 1435.76 815.018C1430.96 817.264 1426.7 820.534 1423.3 824.6H1525.8Z" fill="#6874F7" />
    <path d="M284.3 406.3C279.6 384.2 281.9 378.2 266.3 357.4C261.3 350.7 238.5 352.1 228.3 354C216.2 356.7 203 373.1 203 373.1C213.4 429.4 221.9 423.6 225.2 442.1C228.5 460.6 225.1 468.4 246.1 468.4C267.1 468.4 281.8 459.4 274.9 441.3C286.5 437.6 288.7 427.2 284.3 406.3ZM126.5 328.4C122.1 376.4 138.5 374.1 186.9 355.3L126.5 328.4Z" fill="#4452F2" />
    <path d="M366.5 370.5L323.3 402.5C325.6 403.8 326.9 403.9 329.4 402.5C331.9 401.1 337.6 394.5 340 392.7C342.4 390.9 349 387.2 352.4 385.3C356.441 382.981 360.171 380.159 363.5 376.9C366.2 373.9 367.2 372.9 366.5 370.5Z" fill="black" />
    <path d="M214.3 184.1C198.774 184.115 183.474 187.823 169.664 194.917C155.853 202.01 143.928 212.287 134.873 224.899C125.817 237.51 119.891 252.095 117.583 267.448C115.275 282.801 116.652 298.484 121.6 313.2L214.3 379.8C239.71 378.988 263.807 368.322 281.495 350.061C299.182 331.799 309.071 307.373 309.071 281.95C309.071 256.527 299.182 232.101 281.495 213.839C263.807 195.578 239.71 184.912 214.3 184.1Z" fill="#EB459F" />
    <path d="M242.3 291.3C233.2 287.3 232.9 287.4 227.2 279.6C221.5 271.8 215.2 268.6 208.2 268.6L223.6 329.3C242.2 332 252.3 321.4 253.7 312.1C255.1 302.8 251.4 295.3 242.3 291.3Z" fill="#0C1AAD" />
    <path d="M234.7 300.6C231.4 290.9 223.7 280.1 215.5 272.2C212.49 269.358 210.183 265.854 208.759 261.967C207.336 258.079 206.837 253.914 207.3 249.8L208.9 235.6C209.828 227.71 208.531 219.717 205.156 212.525C201.781 205.333 196.462 199.228 189.8 194.9C186.774 192.937 183.516 191.358 180.1 190.2C174.724 188.419 169.044 187.739 163.4 188.2C152.656 189.007 142.614 193.847 135.289 201.747C127.963 209.648 123.895 220.026 123.9 230.8C123.9 232.604 124 234.407 124.2 236.2L124.9 242L128.1 266.8C129.548 278.021 128.349 289.425 124.6 300.1C123.096 304.336 122.089 308.732 121.6 313.2L197.1 375.3C204.539 372.961 211.432 369.154 217.373 364.103C223.314 359.053 228.182 352.862 231.687 345.897C235.193 338.931 237.266 331.334 237.784 323.553C238.301 315.773 237.253 307.968 234.7 300.6Z" fill="#0C1AAD" />
    <path d="M197.1 375.3C204.539 372.961 211.432 369.154 217.373 364.103C223.314 359.053 228.182 352.862 231.687 345.896C235.193 338.931 237.266 331.334 237.784 323.553C238.301 315.773 237.253 307.968 234.7 300.6C231.4 290.9 223.7 280.1 215.5 272.2" stroke="black" stroke-width="2.201" stroke-miterlimit="10" stroke-linecap="round" />
    <path d="M213.4 305.8C218.6 294.4 221.3 295.4 233 296.8C242.3 297.9 254.9 315 242 326.3C229.1 337.6 199.8 336 213.4 305.8Z" fill="#0C1AAD" />
    <path d="M176.4 280.3C178.057 280.3 179.4 278.957 179.4 277.3C179.4 275.643 178.057 274.3 176.4 274.3C174.743 274.3 173.4 275.643 173.4 277.3C173.4 278.957 174.743 280.3 176.4 280.3Z" fill="black" />
    <path d="M194 279C195.657 279 197 277.657 197 276C197 274.343 195.657 273 194 273C192.343 273 191 274.343 191 276C191 277.657 192.343 279 194 279Z" fill="black" />
    <path d="M194 276C210.1 286 204.9 295.6 218.9 311.8" stroke="white" stroke-width="2.7" stroke-miterlimit="10" stroke-linecap="round" />
    <path d="M180.3 305.5C188.7 297.8 191.2 295.7 194.6 295.4C198 295.1 203.8 294.9 203.8 294.9L205.4 331.6L182.6 334.2L180.3 305.5Z" fill="#FFC619" />
    <path d="M223.5 290C223.608 289.504 223.601 288.989 223.478 288.496C223.355 288.003 223.12 287.545 222.791 287.158C222.461 286.771 222.047 286.465 221.581 286.264C221.114 286.063 220.607 285.973 220.1 286H204.6C203.471 286.008 202.381 286.413 201.522 287.144C200.662 287.876 200.088 288.887 199.9 290L194.7 322.9C194.609 323.402 194.633 323.919 194.769 324.411C194.906 324.903 195.151 325.358 195.487 325.742C195.823 326.127 196.242 326.43 196.712 326.631C197.181 326.831 197.69 326.923 198.2 326.9H213.7C214.818 326.855 215.889 326.437 216.741 325.712C217.593 324.986 218.177 323.996 218.4 322.9L223.5 290Z" fill="black" />
    <path d="M222.5 286.9L224.3 288.6L219.8 289.7L222.5 286.9Z" fill="black" />
    <path d="M232.2 306.9C230 304 227.7 300.2 222.4 300.2V306.9H232.2Z" fill="#FFC619" />
    <path d="M225.2 291.6C225.291 291.097 225.267 290.581 225.131 290.089C224.994 289.597 224.749 289.142 224.413 288.758C224.077 288.373 223.658 288.07 223.188 287.869C222.719 287.669 222.21 287.577 221.7 287.6H206.2C205.082 287.645 204.011 288.063 203.159 288.788C202.307 289.513 201.723 290.504 201.5 291.6L196.4 324.4C196.291 324.896 196.299 325.411 196.422 325.904C196.545 326.397 196.78 326.855 197.109 327.242C197.439 327.629 197.853 327.935 198.319 328.136C198.786 328.337 199.293 328.427 199.8 328.4H215.3C216.429 328.392 217.519 327.987 218.378 327.255C219.238 326.524 219.812 325.513 220 324.4L225.2 291.6Z" fill="white" />
    <path d="M221.9 304.8H228.2C229.482 304.8 230.714 305.302 231.63 306.2C232.546 307.097 233.074 308.318 233.1 309.6C233.127 310.26 233.02 310.919 232.786 311.537C232.552 312.154 232.195 312.718 231.737 313.195C231.28 313.671 230.73 314.05 230.123 314.309C229.515 314.567 228.861 314.701 228.2 314.7H223.6C222.141 314.694 220.726 314.198 219.584 313.291C218.441 312.384 217.637 311.119 217.3 309.7C216.9 307 218.9 304.8 221.9 304.8Z" fill="#FFC619" />
    <path d="M220.8 314.4H225.2C225.918 314.402 226.627 314.563 227.277 314.87C227.926 315.177 228.5 315.622 228.958 316.176C229.416 316.729 229.747 317.377 229.927 318.072C230.107 318.767 230.132 319.494 230 320.2C229.809 321.33 229.22 322.354 228.34 323.088C227.459 323.822 226.346 324.216 225.2 324.2H222.5C221.054 324.2 219.65 323.718 218.509 322.831C217.368 321.943 216.556 320.701 216.2 319.3C215.8 316.6 217.8 314.4 220.8 314.4Z" fill="#FFC619" />
    <path d="M194 325.9H209.2V331.94H194V325.9Z" fill="#FFC619" />
    <path d="M210.1 307.3H200.6C200.135 307.317 199.675 307.192 199.282 306.942C198.89 306.692 198.582 306.329 198.4 305.9L197.3 303.5L196.1 298.6L192.8 317.1H208.4C209.845 317.1 211.25 316.618 212.391 315.731C213.531 314.843 214.344 313.601 214.7 312.2C215.1 309.5 213.1 307.3 210.1 307.3Z" fill="#FFC619" />
    <path d="M208.1 317.1H192.8L194.7 327H206.4C209.3 327 212.2 324.8 212.6 322.1C213 319.4 211.1 317.1 208.1 317.1Z" fill="#FFC619" />
    <path d="M320.7 362.9C319.6 348 306.9 347.4 297.9 343.3C288.9 339.2 277.8 329.7 266.6 323.6C255.4 317.5 246.4 319.2 229.5 327L253.7 363C265.8 367.2 268.9 373.1 276 380.9C283.1 388.7 291.5 390.7 299.6 388.1C304.6 394.4 305.6 395.9 311.5 392.9C317.4 389.9 327.3 383.6 329.2 375.2C331.1 366.8 326.8 365.8 320.7 362.9Z" fill="#66BCFF" />
    <path d="M313.1 388H313C307.7 387.4 305.2 384.8 301.4 380.8C300.5 379.7 299.4 378.6 298.1 377.3C283.5 376.4 276.8 369.6 273 364.6C271.3 362.2 268.3 360.6 265.4 358.9C262.5 357.2 259.8 355.7 257.9 353.4C256.506 351.737 255.299 349.926 254.3 348C252.8 345.4 251.7 343.5 249.8 343.3C247.9 343.1 245 344.5 242.2 346.2C239.699 347.815 237.013 349.125 234.2 350.1C233.975 350.163 233.734 350.135 233.528 350.023C233.323 349.911 233.169 349.723 233.1 349.5C233.053 349.389 233.032 349.269 233.038 349.149C233.044 349.028 233.077 348.911 233.134 348.805C233.192 348.699 233.273 348.608 233.371 348.538C233.469 348.468 233.581 348.421 233.7 348.4C236.339 347.472 238.857 346.229 241.2 344.7C244.3 342.8 247 341.2 250 341.5C253 341.8 254.2 344.3 255.8 347.1C256.838 348.894 257.973 350.63 259.2 352.3C260.9 354.3 263.6 355.8 266.3 357.4C269 359 272.5 360.9 274.5 363.5C278.3 368.7 284.6 374.8 298.6 375.5H298.9L299.2 375.7L302.7 379.4C306.3 383.3 308.5 385.6 313.2 386.1C313.318 386.112 313.433 386.148 313.538 386.205C313.642 386.263 313.735 386.34 313.809 386.433C313.883 386.526 313.939 386.633 313.971 386.747C314.004 386.862 314.014 386.982 314 387.1C313.962 387.325 313.855 387.532 313.693 387.693C313.532 387.855 313.325 387.962 313.1 388Z" fill="#45AAF7" />
    <path d="M250.4 340.3C249.207 346.425 248.704 352.663 248.9 358.9" stroke="black" stroke-width="2.201" stroke-miterlimit="10" stroke-linecap="round" />
    <path d="M266.6 410.7C255.2 423.8 244.1 422.2 239.1 422.3C234.1 422.4 234.2 418.8 233.4 415.9C232.6 413 231.9 408.3 231.9 408.3C219.2 409.3 216.7 401 215.6 393.4C214.8 387.6 212.4 385 210.9 379.8C195.57 379.282 180.576 375.165 167.131 367.782C153.685 360.4 142.165 349.958 133.5 337.3L145.7 325.9L177 340.6C196 330.6 206.6 325.3 217.1 323C227.6 320.7 238.7 323.4 243.7 337.6C248.7 351.8 249.7 356.4 253.7 363L258.1 369.4C262.9 376.7 268.2 387.1 261.6 400.3C262.981 403.897 264.653 407.375 266.6 410.7Z" fill="#8CD9FF" />
    <path d="M158.1 362C156.5 352.3 159.6 344.9 166.2 342.8L147.7 333.5L136 340.5C142.16 348.811 149.623 356.071 158.1 362Z" fill="black" />
    <path d="M242.8 416.8V415C240.3 414.9 239.9 413.1 238.3 404.7L238.1 403.6H237.4C231.7 403 227.6 400.3 226.1 389.1C225.543 383.81 223.873 378.698 221.2 374.1C220.604 372.997 220.07 371.862 219.6 370.7C219.2 369.6 218.7 368.6 218.3 367.6C216.288 363.934 215.352 359.774 215.6 355.6C215.7 351.2 215.1 349 213.5 348C211.9 347 208.7 347.7 203.7 350.1L203 350.4C195.2 354.2 179.5 361.7 163.1 365.4L165.4 366.8C181.2 362.9 196.2 355.7 203.8 352L204.5 351.7C208.4 349.8 211.3 348.7 212.6 349.5C213.9 350.3 213.9 352 213.8 355.5C213.599 359.97 214.564 364.416 216.6 368.4C217.1 369.4 217.5 370.3 217.9 371.3C218.418 372.571 219.02 373.807 219.7 375C221.3 377.9 223.2 381.5 224.3 389.4C225.7 399.6 229.3 404.3 236.5 405.3C238.1 413.5 238.7 416.6 242.8 416.8Z" fill="#66BCFF" />
    <path d="M180.3 303.5C176 300.6 172.9 301.3 168.3 304C162.6 300.2 155.9 300.4 149.2 303.8C144.3 306.2 132.3 311.6 126.3 314.3C125.96 314.444 125.588 314.495 125.222 314.449C124.856 314.403 124.508 314.261 124.214 314.038C123.92 313.815 123.69 313.519 123.547 313.178C123.404 312.838 123.353 312.466 123.4 312.1L126.2 294.9C112.7 308 110.4 332.2 116.5 344.4C122.6 356.6 143.1 353.5 149.2 349.1C155.3 344.7 157.4 343.1 165 343.5C172.6 343.9 178.6 343.9 187.5 335.1L193.1 332.3C194 319.4 191 310.7 180.3 303.5Z" fill="#0C1AAD" />
    <path d="M180.3 303.5C176 300.6 172.9 301.3 168.3 304C162.6 300.2 155.9 300.4 149.2 303.8C144.3 306.2 132.3 311.6 126.3 314.3M169.3 304.5C181.8 312.2 185.4 322.2 186.9 328.9" stroke="black" stroke-width="2.201" stroke-miterlimit="10" stroke-linecap="round" />
    <path d="M255.6 258.2H238.5C238.304 258.198 238.114 258.269 237.967 258.398C237.819 258.527 237.724 258.706 237.7 258.9L235.5 272.8C235.458 272.965 235.47 273.139 235.534 273.297C235.599 273.455 235.711 273.588 235.856 273.677C236.001 273.766 236.171 273.807 236.341 273.793C236.51 273.779 236.671 273.712 236.8 273.6L256.1 259.7C256.27 259.613 256.403 259.467 256.475 259.29C256.547 259.114 256.553 258.917 256.493 258.736C256.432 258.555 256.309 258.401 256.145 258.303C255.982 258.204 255.788 258.168 255.6 258.2Z" fill="white" />
    <path d="M294.9 262.9C305.3 262.9 315.2 254.5 316.8 244.2V243.7C318.5 233.5 311.2 225 300.8 225H243C232.6 225 222.7 233.5 221.1 243.7V244.2C219.4 254.5 226.6 262.9 237.1 262.9H294.9Z" fill="white" />
    <path d="M240.3 251.8C242.45 251.725 244.512 250.923 246.147 249.524C247.782 248.125 248.894 246.213 249.3 244.1V243.9C249.5 242.941 249.478 241.949 249.234 240.999C248.99 240.05 248.532 239.17 247.894 238.426C247.257 237.682 246.457 237.095 245.556 236.709C244.656 236.323 243.678 236.149 242.7 236.2C240.544 236.256 238.473 237.052 236.835 238.454C235.196 239.856 234.089 241.779 233.7 243.9V244.1C233.52 245.057 233.557 246.042 233.808 246.982C234.059 247.922 234.519 248.794 235.152 249.534C235.786 250.273 236.577 250.86 237.468 251.252C238.359 251.645 239.327 251.832 240.3 251.8Z" fill="#8CD9FF" />
    <path d="M267.7 251.8C269.845 251.708 271.897 250.899 273.529 249.503C275.16 248.108 276.277 246.205 276.7 244.1V243.9C276.88 242.943 276.843 241.958 276.592 241.018C276.34 240.078 275.881 239.206 275.247 238.466C274.614 237.727 273.822 237.14 272.932 236.748C272.041 236.355 271.073 236.168 270.1 236.2C267.944 236.256 265.873 237.052 264.235 238.454C262.596 239.856 261.489 241.779 261.1 243.9V244.1C260.92 245.057 260.957 246.042 261.208 246.982C261.459 247.923 261.919 248.794 262.552 249.534C263.186 250.273 263.977 250.86 264.868 251.252C265.759 251.645 266.727 251.832 267.7 251.8Z" fill="#66BCFF" />
    <path d="M295 251.8C297.156 251.744 299.227 250.948 300.865 249.546C302.504 248.144 303.611 246.221 304 244.1V243.9C304.18 242.943 304.143 241.958 303.892 241.018C303.641 240.078 303.181 239.206 302.548 238.466C301.914 237.727 301.123 237.14 300.232 236.748C299.341 236.355 298.373 236.168 297.4 236.2C295.244 236.256 293.173 237.052 291.535 238.454C289.896 239.856 288.789 241.779 288.4 243.9V244.1C288.222 245.048 288.257 246.024 288.503 246.957C288.748 247.89 289.199 248.757 289.821 249.494C290.444 250.231 291.222 250.82 292.101 251.219C292.979 251.618 293.935 251.817 294.9 251.8H295Z" fill="#8CD9FF" />
    <path d="M209.8 294.1C209.828 293.895 209.813 293.687 209.757 293.488C209.7 293.289 209.603 293.104 209.472 292.944C209.34 292.784 209.177 292.654 208.993 292.56C208.808 292.466 208.606 292.412 208.4 292.4H207C206.606 292.428 206.231 292.578 205.926 292.829C205.622 293.079 205.403 293.419 205.3 293.8L204.6 298.5C204.572 298.705 204.587 298.913 204.643 299.112C204.7 299.311 204.797 299.496 204.928 299.656C205.06 299.816 205.223 299.946 205.407 300.04C205.592 300.134 205.793 300.188 206 300.2H207.4C207.786 300.183 208.155 300.035 208.446 299.781C208.737 299.526 208.932 299.18 209 298.8L209.8 294.1Z" fill="#29CC7A" />
    <path d="M184.6 270.7C185.5 268.41 186.902 266.35 188.701 264.672C190.501 262.994 192.653 261.739 195 261C195.2 261 195.3 260.8 195.2 260.6C192.7 254.2 193.2 250.3 195 245.2C195 245 194.9 244.8 194.7 244.8C186.6 242.6 183 237.6 181.8 233.5C181.765 233.437 181.715 233.385 181.653 233.349C181.592 233.313 181.521 233.294 181.45 233.294C181.378 233.294 181.308 233.313 181.247 233.349C181.185 233.385 181.135 233.437 181.1 233.5C178.4 240.8 173.8 241.7 169.7 241.8C169.636 241.78 169.567 241.782 169.504 241.806C169.441 241.83 169.388 241.874 169.353 241.932C169.319 241.99 169.304 242.057 169.313 242.124C169.321 242.191 169.352 242.253 169.4 242.3C174.2 249.4 172.1 255.3 168.5 259.7C168.42 259.727 168.355 259.784 168.317 259.859C168.28 259.934 168.273 260.02 168.3 260.1C168.326 260.18 168.383 260.245 168.458 260.283C168.534 260.32 168.62 260.326 168.7 260.3C176.7 260.5 181.4 265 184 270.7C184 270.78 184.032 270.856 184.088 270.912C184.144 270.968 184.22 271 184.3 271C184.379 271 184.456 270.968 184.512 270.912C184.568 270.856 184.6 270.78 184.6 270.7Z" fill="#FFC619" />
    <path d="M208.1 317.1H200" stroke="black" stroke-width="2.201" stroke-miterlimit="10" stroke-linecap="round" />
    <path d="M222.4 314.7H226.9" stroke="black" stroke-width="2.201" stroke-miterlimit="10" stroke-linecap="round" />
    <path d="M181.4 233.3C184.1 225 183.2 219.7 182 216.8M194.1 245.2C199.6 244.9 203 243.1 205.9 240M184.6 270.7C184.724 271.73 184.724 272.77 184.6 273.8M169.1 259.7C164.4 264.1 156.6 264.6 151 263.7M169.7 241.8C167.3 238.1 163.2 234.1 159.7 232.9M195.2 260.6C197.117 261.233 199.094 261.668 201.1 261.9" stroke="black" stroke-width="2.201" stroke-miterlimit="10" stroke-linecap="round" />
    <path d="M178.7 247.8C182.2 256.6 185.2 255.7 186.2 252.8C187.2 249.9 187.9 246.2 190.2 246.2C192.5 246.2 192.2 250 190.2 255.9C188.2 261.8 184.1 263.7 179.5 259.5C174.9 255.3 174.3 250.5 173.8 247.2C173.3 243.9 176.7 242.7 178.7 247.8Z" fill="#C40655" />
    <path d="M176.4 277.3C180.2 296.1 171.4 306.5 170.6 325.9" stroke="white" stroke-width="2.7" stroke-miterlimit="10" stroke-linecap="round" />
    <path d="M209.9 378.5C205.1 367.414 204.813 354.894 209.1 343.6M206.1 360C203.2 356.3 202.8 350.5 202.8 350.5" stroke="black" stroke-width="2.201" stroke-miterlimit="10" stroke-linecap="round" />
    <path d="M131.5 312L121.6 316.7" stroke="black" stroke-width="2.201" stroke-miterlimit="10" stroke-linecap="round" />
    <path d="M234.5 296.5L240.2 297.4" stroke="black" stroke-width="2.201" stroke-miterlimit="10" stroke-linecap="round" />
    <path d="M366.6 370.3C365.94 371.533 365.17 372.705 364.3 373.8C360.3 378.8 350.8 385.2 345.6 388C340.4 390.8 338.9 392 335.2 395.8C331.5 399.6 327.1 404.6 323.3 402.5C319.5 400.4 313.6 395 309.9 391.1C309.686 390.879 309.535 390.605 309.465 390.305C309.395 390.006 309.407 389.693 309.5 389.4C310.9 383.6 316.2 374.9 324.7 369.5C324.977 369.351 325.286 369.273 325.6 369.273C325.914 369.273 326.223 369.351 326.5 369.5C332.2 372.5 335.5 373 339.8 372.3C346.2 371.4 352.1 367.6 358.6 364.7C365.1 361.8 365.7 364.9 366.6 370.3Z" fill="#D11583" />
    <path d="M314.4 395.5C317.177 398.065 320.153 400.406 323.3 402.5C327.1 404.6 331.6 399.6 335.2 395.8C338.8 392 340.4 390.9 345.6 388C350.8 385.1 360.3 378.8 364.3 373.8C365.17 372.705 365.94 371.533 366.6 370.3C365.7 364.9 364.1 362.3 358.6 364.7C353.1 367.1 350.2 369 346 370.6C344.81 371.093 343.779 371.904 343.02 372.945C342.261 373.986 341.804 375.216 341.7 376.5C341.6 378 341.6 379.6 341.6 381.4C333.9 381 327 384.4 326.5 394.4C326.5 394.4 319.7 391.9 314.4 395.5Z" fill="#FA80BA" />
    <path d="M364.3 373.8C365.102 372.747 365.837 371.645 366.5 370.5C366.605 370.358 366.677 370.195 366.711 370.022C366.746 369.849 366.742 369.671 366.7 369.5C366.547 368.434 366.172 367.412 365.6 366.5C364.7 368.8 363.1 371.1 359.1 374.9C352.8 380.8 345.4 383.6 341 385.9C336.99 387.951 333.475 390.852 330.7 394.4C328.42 397.559 325.303 400.018 321.7 401.5L323.3 402.5C327.1 404.6 331.6 399.6 335.2 395.8C338.8 392 340.4 390.9 345.6 388C350.8 385.1 360.3 378.8 364.3 373.8Z" fill="#FFE75C" />
    <path d="M280.6 391.8C273.3 390.9 266.5 395.2 261.4 408.1C259.5 407 254.9 406.1 248.3 408.3C241.7 410.5 239.7 413.6 238.8 416.1C238.303 417.456 238.303 418.944 238.8 420.3C239.3 421.9 240.1 424.2 241.4 428C243.4 433.8 243.2 439.1 246.7 439.2L289.5 399.3C289.5 399.3 290 393 280.6 391.8Z" fill="#D11583" />
    <path d="M280.6 391.8C273.3 390.9 266.5 395.2 261.4 408.1C260.8 409.7 260.2 411.7 259.6 413.9C252.3 414.3 249.2 417.9 248.8 425.1C248.8 425.1 243.5 422.6 241 426.8C241.1 427.2 241.3 427.6 241.4 428C243.4 433.8 243.2 439.1 246.7 439.2L289.5 399.3C289.5 399.3 290 393 280.6 391.8Z" fill="#FA80BA" />
    <path d="M289.1 397.3L285.3 394.7C279.3 394.5 274.3 395 269.7 401.7C265.1 408.4 262.4 415.3 257.3 420C250 426.9 243.7 430.2 243.1 434.6C243.8 437.3 244.6 439.1 246.7 439.2L289.5 399.3C289.473 398.616 289.338 397.941 289.1 397.3Z" fill="#FFE75C" />
    <path d="M282.6 392.9L286.1 393.4C286.395 393.408 286.684 393.484 286.944 393.623C287.205 393.762 287.429 393.959 287.6 394.2C289.2 395.9 289.8 398.6 289.8 401.2L277.4 400.7C281.3 398.2 282.4 396.1 281.8 393.9C281.737 393.78 281.711 393.644 281.724 393.509C281.737 393.374 281.789 393.245 281.874 393.139C281.959 393.033 282.073 392.954 282.201 392.912C282.33 392.869 282.469 392.865 282.6 392.9Z" fill="#D11583" />
    <path d="M246.9 439.2C259 439.9 263.9 435.5 268.4 429.5C270.319 426.914 272.572 424.594 275.1 422.6C281.7 417.5 286.8 412.5 289.8 405.2C293.6 396 280.8 395.2 274 402.4C267.2 409.6 267.6 417 253.8 428.2C244.4 435.9 243.3 439 246.9 439.2Z" fill="black" />
    <path d="M244.355 419.858C245.237 419.822 245.908 418.675 245.853 417.295C245.798 415.916 245.037 414.826 244.154 414.862C243.271 414.897 242.6 416.044 242.656 417.424C242.711 418.803 243.472 419.893 244.355 419.858Z" fill="white" />
    <path d="M366.9 368.6C366.454 367.248 365.814 365.968 365 364.8C365.013 364.747 365.005 364.691 364.977 364.644C364.949 364.597 364.903 364.563 364.85 364.55C364.797 364.537 364.741 364.545 364.694 364.573C364.647 364.601 364.613 364.647 364.6 364.7H364.4C364.331 364.739 364.274 364.798 364.239 364.869C364.203 364.941 364.19 365.021 364.2 365.1C365.2 367.9 365.8 371.1 364.6 373.3C367.5 370.4 366.9 369.1 366.9 368.6Z" fill="#D11583" />
    <path d="M318.824 390.538C320.084 390.127 320.605 388.261 319.987 386.371C319.369 384.481 317.847 383.283 316.587 383.695C315.327 384.107 314.807 385.972 315.424 387.862C316.042 389.752 317.564 390.95 318.824 390.538Z" fill="white" />
    <path d="M290.1 1034.3C272.231 1034.3 254.93 1028.02 241.221 1016.56C227.511 1005.1 218.266 989.186 215.1 971.6C209.1 937.9 203.1 911.2 194.6 888.8L334.6 837.5C341.2 860.1 351.3 889.6 363.9 939.5C376 987.6 339.7 1034.3 290.1 1034.3Z" fill="#4452F2" />
    <path d="M488.9 731.9C484.2 725.9 482.2 726.9 478.7 726.9C478.7 721 475.9 720.5 474.6 725.4C473.3 730.3 472.5 732.6 475.7 737.3C478.9 742 483.2 748.9 485.1 757.1C480.56 758.334 476.088 759.802 471.7 761.5L479.5 779.6C492.5 773.8 500.1 768.8 500.9 758.4C501.7 748 493.7 738 488.9 731.9Z" fill="#FFC619" />
    <path d="M350.2 707.9C360.6 708 368.4 708.4 379.4 711.9C383.128 713.058 386.385 715.385 388.69 718.536C390.995 721.687 392.226 725.496 392.2 729.4V769.4H388.2L386.1 766.1V734.6C386.117 730.969 384.914 727.437 382.683 724.572C380.453 721.707 377.324 719.674 373.8 718.8C367.261 717.234 360.606 716.198 353.9 715.7L348.9 708L350.2 707.9Z" fill="#BDE9FF" />
    <path d="M395 802.7C393.989 802.7 392.988 802.501 392.053 802.114C391.119 801.727 390.27 801.16 389.555 800.445C388.84 799.73 388.273 798.881 387.886 797.947C387.499 797.012 387.3 796.011 387.3 795V754.7C387.3 752.658 388.111 750.699 389.555 749.255C390.999 747.811 392.958 747 395 747C397.573 747 400.04 748.022 401.859 749.841C403.678 751.66 404.7 754.127 404.7 756.7V793C404.7 794.274 404.449 795.535 403.962 796.712C403.474 797.889 402.76 798.958 401.859 799.859C400.958 800.76 399.889 801.474 398.712 801.962C397.535 802.449 396.274 802.7 395 802.7Z" fill="black" />
    <path d="M271.2 918.9C333.443 918.9 383.9 868.443 383.9 806.2C383.9 743.958 333.443 693.5 271.2 693.5C208.958 693.5 158.5 743.958 158.5 806.2C158.5 868.443 208.958 918.9 271.2 918.9Z" fill="#0C1AAD" />
    <path d="M163.8 772C156.109 796.206 156.813 822.298 165.796 846.054C174.78 869.811 191.517 889.84 213.3 902.9C222.249 891.912 228.155 878.766 230.426 864.778C232.698 850.791 231.255 836.451 226.243 823.196C221.23 809.941 212.824 798.236 201.866 789.251C190.907 780.266 177.78 774.317 163.8 772Z" fill="#039C78" />
    <path d="M179.8 785.6C172.4 782.8 171.3 781.5 169.5 778C167.7 774.5 166.7 775.2 163 774.7C162.7 775.7 162.4 776.6 162.2 777.6C177 787.3 181.1 808.3 181.1 808.3L187.3 805.4C187.3 805.4 187.3 788.3 179.8 785.6Z" fill="#FA94C4" />
    <path d="M160.3 826.5C164.884 851.378 177.704 873.99 196.698 890.698C215.692 907.406 239.755 917.238 265.014 918.612C290.273 919.986 315.26 912.821 335.954 898.272C356.648 883.723 371.845 862.634 379.1 838.4L260.7 789C233.9 781.6 187.3 778.9 160.3 826.5Z" fill="url(#paint0_linear_5_273)" />
    <path d="M347.9 887.4C324.7 887.4 282.5 891.9 257.8 864C275.7 884.2 284.1 899.4 284.7 918C308.305 915.159 330.399 904.9 347.8 888.7L347.9 887.4Z" fill="black" />
    <path d="M175.8 806.2C189.7 792.5 229.1 782.8 261.2 806.2L273.6 793.1C272.6 771.5 267.8 770.2 261.2 777.1C254.6 784 253.2 777.8 246.7 766.1C240.2 754.4 232 752.2 226.1 764.2C220.2 776.2 221.5 776.6 216.6 774.9C211.7 773.2 202.6 768.8 195 767.7C187.4 766.6 183.8 777.4 184.5 785.6C185.2 793.8 183.1 793.5 179.2 791.9C175.3 790.3 174.3 795.3 175.8 806.2Z" fill="#FA80BA" />
    <path d="M234.4 790.9C235.965 780.976 236.2 770.887 235.1 760.9M192 772C197.8 784 198.8 790 198.8 790" stroke="#FF5CB4" stroke-width="2.289" stroke-miterlimit="10" stroke-linecap="round" />
    <path d="M498.5 806.2C501.9 795.2 502.9 795 480.3 795.9C459.5 796.7 433.2 797.5 409.1 799.3C407.9 784.7 403.2 778.9 397.9 771.3C399.9 747.2 395.5 723.8 371.6 718.1C347.7 712.4 312.5 711.2 289.1 719.9C265.7 728.6 272.3 762.1 274.8 784.8C274.8 784.8 254.1 791.5 246.3 812C239.8 829.3 242.9 849.9 261.4 867.7C291.1 896.3 321 899.4 349.3 896.1C371.3 893.4 382.4 876.6 385.5 860.3C425.8 875.4 451.4 852.7 460.3 841.8C470.8 829.2 485.7 825.1 494.7 821.2C503.7 817.3 507.5 813.8 498.5 806.2Z" fill="#2AD17D" />
    <path d="M302 681.8C293.5 681.3 284.5 686.9 290.5 703C281.3 702.1 272.1 707.2 278.6 722.3L320.9 707.9C317.2 689.3 310.5 682.4 302 681.8Z" fill="#FA80BA" />
    <path d="M300.1 760.1C300.1 749.772 291.728 741.4 281.4 741.4C271.072 741.4 262.7 749.772 262.7 760.1V789.59C262.7 799.918 271.072 808.29 281.4 808.29C291.728 808.29 300.1 799.918 300.1 789.59V760.1Z" fill="black" />
    <path d="M355.6 709.2V715.2C338 712.9 316.2 712.7 298.3 717.1C294.793 718.006 291.684 720.047 289.459 722.905C287.234 725.763 286.017 729.278 286 732.9V767.7H264.2V731.5C264.197 726.304 266.032 721.275 269.382 717.304C272.731 713.332 277.378 710.674 282.5 709.8C314.9 704.1 337.4 706.3 355.6 709.2Z" fill="white" />
    <path d="M321.9 706.3C311.5 706.3 303.7 706.8 292.7 710.2C288.988 711.386 285.749 713.719 283.449 716.864C281.148 720.009 279.906 723.804 279.9 727.7V767.7H283.9L286 764.5V732.9C286.018 729.278 287.234 725.763 289.459 722.905C291.684 720.047 294.793 718.006 298.3 717.1C304.842 715.568 311.497 714.565 318.2 714.1L323.2 706.3H321.9Z" fill="#BDE9FF" />
    <path d="M416.6 804.3C392.2 805.5 365.2 807.1 355.4 807.5C345.6 807.9 339.8 808.2 338.1 812.9C336.4 817.6 349.8 818.3 366.7 819.4C383.6 820.5 421.7 820.3 443.7 819.4C459.958 818.848 476.179 817.48 492.3 815.3C502.6 813.8 492.8 807 492.8 807C492.8 807 496.7 800.8 491.1 800.1C485.5 799.4 416.6 804.3 416.6 804.3Z" fill="#039C78" />
    <path d="M391.1 813.6C392.1 799 397.7 798.2 400.1 802.1C401.646 804.5 402.794 807.134 403.5 809.9C404.053 809.602 404.672 809.447 405.3 809.447C405.928 809.447 406.547 809.602 407.1 809.9C407.765 810.272 408.325 810.806 408.728 811.453C409.13 812.1 409.361 812.839 409.4 813.6H391.1ZM357.8 812.3C361.3 802.2 368.5 804.1 373.5 806.4C374.887 806.967 376.084 807.917 376.952 809.139C377.819 810.36 378.322 811.804 378.4 813.3L357.8 812.3ZM346.7 811.9C349.4 801.5 352.2 802.2 353.1 806.2C354 810.2 354.3 812.3 354.3 812.3L346.7 811.9Z" fill="white" />
    <path d="M488.2 808.6C473.6 810.9 447.1 813.2 413.1 813.6C412.2 805.2 414.8 797.9 425.1 789.9C429.6 786.4 429.2 783.8 428.8 781.5C427.5 773.2 424.3 764.9 419.5 754.2C412.2 737.7 411.3 724.1 423.4 716.7C435.5 709.3 449.4 713.5 458.7 727.2C468 740.9 488.5 771 488.2 808.6Z" fill="#FFC619" />
    <path d="M447.4 734.6C456.4 743.1 459.8 742.1 461.8 741.6C463.8 741.1 462.1 736 461 733.7L447.4 734.6Z" fill="#FFAE00" />
    <path d="M468.2 811C474.1 800 477.2 796.9 480.8 798.1C484.4 799.3 484.1 809.2 484.1 809.2L468.2 811ZM447.9 812.5C452.7 796.1 458.6 798.2 460.6 800.9C462.6 803.6 464.6 811.3 464.6 811.3L447.9 812.5ZM432.7 746.5C433.4 750.6 432 754 429.9 754.5C427.8 755 425.8 752.9 424.6 749.7C423.4 746.5 423.8 741.3 426 739.9C428.2 738.5 431.8 741.5 432.7 746.5Z" fill="white" />
    <path d="M447.4 734.6C444.9 731.5 446.3 725.8 449.4 720.6C452.5 715.4 456.8 713.6 460.4 713.6C464 713.6 465.1 717.2 460.9 727.2C466.2 726.3 468.6 726.4 469.1 729.3C469.6 732.2 466.1 734.3 458.2 735.6C450.3 736.9 448.8 736.3 447.4 734.6Z" fill="#ED5F00" />
    <path d="M478.5 726.3C479.9 722.5 481.5 722.1 482.3 722.5C483.1 722.9 482.9 724.7 482.1 728.3C481.3 731.9 477.2 729.8 478.5 726.3Z" fill="#FFC619" />
    <path d="M481.4 726.9C484.5 724.3 486.1 724.6 486.6 725.4C487.1 726.2 486.1 727.6 483.7 730.4C481.3 733.2 478.6 729.3 481.4 726.9Z" fill="#FFC619" />
    <path d="M343 773.8C349.3 773.9 351.7 772.8 352.4 770.2C353.1 767.6 348.9 762.1 340.3 761.5C331.7 760.9 325.9 764.9 324.6 770.1C323.3 775.3 326.1 774.2 332 773.9C335.66 773.621 339.335 773.587 343 773.8ZM378.3 773.8C373.1 773.9 371.2 772.8 370.6 770.2C370 767.6 373.4 762.1 380.4 761.5C387.4 760.9 392.2 764.9 393.2 770.1C394.2 775.3 391.9 774.2 387.2 773.9C384.241 773.62 381.264 773.587 378.3 773.8Z" fill="white" />
    <path d="M268.1 747H272.6C276.154 747 279.562 748.412 282.075 750.925C284.588 753.438 286 756.846 286 760.4V789.3C286 792.854 284.588 796.262 282.075 798.775C279.562 801.288 276.154 802.7 272.6 802.7H268.1C265.881 802.7 263.683 802.263 261.633 801.414C259.582 800.564 257.719 799.319 256.15 797.75C254.581 796.181 253.336 794.318 252.486 792.267C251.637 790.217 251.2 788.019 251.2 785.8V763.9C251.2 761.681 251.637 759.483 252.486 757.433C253.336 755.382 254.581 753.519 256.15 751.95C257.719 750.381 259.582 749.136 261.633 748.286C263.683 747.437 265.881 747 268.1 747Z" fill="#BDE9FF" />
    <path d="M267 747H279.9V789.8C279.9 793.221 278.541 796.502 276.122 798.922C273.702 801.341 270.421 802.7 267 802.7C262.81 802.7 258.791 801.035 255.828 798.072C252.865 795.109 251.2 791.09 251.2 786.9V762.8C251.2 758.61 252.865 754.591 255.828 751.628C258.791 748.665 262.81 747 267 747Z" fill="white" />
    <path d="M362.2 739.8C354.9 739.8 352.4 737.8 347.2 730.9C342 724 335.7 713.4 318.4 714C307.3 698.3 312 679.6 323.1 670.4C334.2 661.2 356.5 661.2 364.5 675.6C368.8 683.2 370.5 691.5 367.6 706.3C377 703.6 380.6 710 379.2 718C377.8 726 371.2 739.8 362.2 739.8Z" fill="#FA80BA" />
    <path d="M265 764.2H264.9C262.856 764.2 261.2 765.857 261.2 767.9V781.93C261.2 783.973 262.856 785.63 264.9 785.63H265C267.043 785.63 268.7 783.973 268.7 781.93V767.9C268.7 765.857 267.043 764.2 265 764.2Z" fill="#FF78B9" />
    <path d="M382.1 765.7C383.885 765.411 385.716 765.728 387.3 766.6M338.4 765.8C340.896 765.53 343.42 765.803 345.8 766.6" stroke="black" stroke-width="3.204" stroke-miterlimit="10" stroke-linecap="round" />
    <path d="M351.8 750.9C340.5 750.6 334.4 750.7 324.3 752M392.3 752.4C385.5 750.8 381.3 750.6 373.7 750.6" stroke="black" stroke-width="6.866" stroke-miterlimit="10" stroke-linecap="round" />
    <path d="M490.2 808.3C468.1 812 412.9 816.2 344.6 811.7" stroke="black" stroke-width="2.289" stroke-miterlimit="10" stroke-linecap="round" />
    <path d="M383 859.7C376.8 868.2 368.1 876.1 351.9 879.4C327.7 884.2 315.1 861.4 313.3 842.5C312.6 834.4 312.3 825.8 315.9 834.8C322.9 851.8 338.7 854.3 350.5 854C362.3 853.7 367.6 854.9 383 859.7Z" fill="#039C78" />
    <path d="M255.1 873.9C262.3 877.6 271.2 877.9 271.2 877.9M251.2 801.8C247.037 807.692 244.298 814.47 243.2 821.6" stroke="black" stroke-width="2.289" stroke-miterlimit="10" stroke-linecap="round" />
    <path d="M338.348 838.752C340.523 836.476 339.017 831.507 334.984 827.653C330.952 823.799 325.919 822.52 323.744 824.796C321.569 827.072 323.075 832.041 327.108 835.895C331.141 839.749 336.173 841.028 338.348 838.752Z" fill="#03AB83" />
    <path d="M359.4 738.7C366.2 731.2 369.5 720.4 370.6 713M347.2 728.6C353 705 353 679.9 337 671.1" stroke="#EB459F" stroke-width="2.289" stroke-miterlimit="10" stroke-linecap="round" />
    <path d="M257.479 837.638C259.768 837.268 261.138 833.962 260.537 830.254C259.937 826.547 257.594 823.843 255.304 824.213C253.014 824.584 251.645 827.89 252.245 831.597C252.846 835.305 255.189 838.009 257.479 837.638Z" fill="#57F287" />
    <path d="M333.2 811.7L338.3 804.9" stroke="black" stroke-width="2.289" stroke-miterlimit="10" stroke-linecap="round" />
    <path d="M429.454 746.292C430.401 745.84 430.61 744.302 429.92 742.856C429.231 741.411 427.904 740.605 426.957 741.057C426.01 741.509 425.801 743.047 426.491 744.492C427.18 745.938 428.507 746.744 429.454 746.292Z" fill="black" />
    <path d="M450.6 731.2C450.494 731.2 450.392 731.158 450.317 731.083C450.242 731.008 450.2 730.906 450.2 730.8C450.512 728.157 451.436 725.623 452.9 723.4C455.4 719.6 457.3 718.3 459 717.9C460.7 717.5 462.1 717.9 462.1 719.4C461.767 722.322 461.027 725.183 459.9 727.9C461.772 727.498 463.687 727.33 465.6 727.4C466.7 727.5 466.7 728 465.9 728.4C465.1 728.8 460.9 730.4 450.6 731.2Z" fill="black" />
    <path d="M442.1 791.4C443.2 801.1 435.1 813.1 435.1 813.1" stroke="black" stroke-width="2.289" stroke-miterlimit="10" stroke-linecap="round" />
    <path d="M288.9 889.8L288.1 889.2L288.9 888.7C289.8 888.1 290.7 887.4 290.6 886.5C290.5 885.6 289.6 885 288.7 884.6L287.8 884.1C288.022 883.846 288.294 883.642 288.6 883.5C289.4 882.8 290.2 882.1 290.1 881.2C290 880.3 289 879.8 288 879.4L287.2 879L287.8 878.3C288.6 877.6 289.4 876.9 289.2 875.9C289 874.9 288 874.6 287.1 874.2C286.783 874.161 286.477 874.059 286.2 873.9L286.8 873.2C287.6 872.5 288.3 871.7 288.1 870.8C287.9 869.9 286.9 869.5 285.9 869.2C285.615 869.107 285.345 868.973 285.1 868.8L285.7 868.1C286.4 867.4 287.2 866.6 287 865.7C286.8 864.8 285.7 864.5 284.8 864.1L283.9 863.8L284.5 863.1C285.3 862.4 286 861.6 285.8 860.7C285.6 859.8 284.6 859.4 283.6 859.1L282.8 858.7C283 858.5 283.2 858.2 283.4 858.1C283.804 857.836 284.141 857.482 284.384 857.066C284.627 856.649 284.769 856.181 284.8 855.7C284.6 854.8 283.6 854.4 282.7 854L281.9 853.6L282.6 853C283.3 852.4 284.2 851.7 284.1 850.8C284 849.9 283 849.4 282.1 848.9L281.4 848.4L282.1 847.9C282.9 847.4 283.8 846.8 283.8 845.9C283.8 845 283 844.4 282.2 843.8L281.5 843.2L282.3 842.9L283.4 842.3C283.627 842.197 283.816 842.027 283.941 841.812C284.067 841.597 284.122 841.348 284.1 841.1C284.088 840.846 284.007 840.6 283.866 840.389C283.726 840.178 283.53 840.009 283.3 839.9C281.8 839.2 281.8 837.6 282.1 831.3V831C282.5 824 280.9 805.7 278.7 800.6C278.656 800.487 278.59 800.383 278.505 800.296C278.42 800.209 278.319 800.141 278.207 800.094C278.095 800.047 277.974 800.024 277.853 800.025C277.731 800.026 277.611 800.051 277.5 800.1C277.287 800.208 277.12 800.388 277.028 800.608C276.937 800.828 276.927 801.073 277 801.3C278.9 805.7 280.7 823.5 280.3 830.9V831.2C280 837.2 279.9 839.7 281.7 841.1H281.6C280.6 841.5 279.6 841.9 279.5 842.9C279.4 843.9 280.2 844.5 281.1 845.1L281.9 845.7L281.1 846.3C280.2 846.9 279.3 847.5 279.3 848.4C279.3 849.3 280.3 849.9 281.3 850.4L282.1 850.9L281.4 851.5C280.6 852.2 279.7 852.9 279.9 853.8C280.1 854.7 281 855.2 282 855.6C282.285 855.693 282.555 855.827 282.8 856C282.654 856.247 282.448 856.454 282.2 856.6C281.4 857.4 280.6 858.1 280.8 859C281 859.9 282 860.3 283 860.7L283.9 861C283.693 861.258 283.458 861.493 283.2 861.7C282.5 862.5 281.7 863.2 282 864.1C282.3 865 283.2 865.4 284.1 865.7L285 866.1L284.4 866.8C283.7 867.5 282.9 868.3 283.1 869.2C283.3 870.1 284.3 870.4 285.3 870.8L286.2 871.1L285.5 871.8C284.8 872.5 284.1 873.3 284.3 874.2C284.5 875.1 285.4 875.5 286.4 875.9L287.2 876.2L286.6 876.9C285.8 877.6 285.1 878.3 285.2 879.2C285.3 880.1 286.3 880.5 287.3 880.9L288.1 881.3L287.4 881.9C286.6 882.6 285.8 883.3 285.9 884.2C286 885.1 286.9 885.6 287.8 886.1L288.6 886.5L287.9 887C287 887.6 286.1 888.2 286.2 889.1C286.3 890 287 890.6 287.9 891.2L288.6 891.7L287.8 892.2C286.9 892.6 286 893.1 285.9 894C285.8 894.9 286.6 895.6 287.4 896.3L288 896.9L287.2 897.2C286.3 897.6 285.3 897.9 285 898.8C284.7 899.7 285.5 900.5 286.1 901.2L286.7 901.9L285.9 902.1C284.9 902.3 283.8 902.5 283.5 903.3C283.368 903.756 283.364 904.239 283.487 904.698C283.611 905.156 283.857 905.572 284.2 905.9L284.6 906.7H283.8C282.7 906.8 281.7 906.8 281.2 907.6C280.7 908.4 281.1 909.3 281.5 910.2L281.8 911.1H280.9C279.9 911 278.9 910.9 278.3 911.5C277.7 912.1 277.9 913.2 278.2 914.2C278.229 914.507 278.296 914.809 278.4 915.1L277.5 914.9C276.5 914.7 275.5 914.4 274.8 915C274.1 915.6 274.3 916.6 274.4 917.6C274.5 918.6 274.5 918.3 274.5 918.6L273.7 918.3C272.7 917.9 271.7 917.5 270.9 918.1C270.679 918.289 270.508 918.53 270.4 918.8H276.3C276.317 918.364 276.283 917.928 276.2 917.5C276.2 917.2 276.1 916.8 276.1 916.6L277.1 916.8C278.1 917 279.1 917.3 279.8 916.6C280.5 915.9 280.2 914.9 279.9 913.8C279.871 913.493 279.804 913.19 279.7 912.9H280.7C281.8 913 282.8 913.2 283.4 912.4C284 911.6 283.6 910.6 283.2 909.6L282.8 908.7H283.8C284.9 908.6 285.9 908.6 286.4 907.8C286.9 907 286.3 906 285.7 905.1L285.3 904.2L286.2 904C287.2 903.8 288.3 903.6 288.6 902.7C288.9 901.8 288.2 900.9 287.5 900.1L286.9 899.4L287.8 899C288.8 898.7 289.8 898.3 290 897.4C290.2 896.5 289.4 895.7 288.6 895L287.9 894.4L288.7 893.9C289.6 893.4 290.6 892.9 290.6 891.9C290.6 890.9 289.8 890.4 288.9 889.8Z" fill="white" />
    <path d="M485.1 757.1L489.7 758.7" stroke="black" stroke-width="2.289" stroke-miterlimit="10" stroke-linecap="round" />
    <path d="M203.2 874.9C198.8 872.8 193.2 873.9 185 878.8C188.019 882.303 191.223 885.641 194.6 888.8C193.3 898.3 190.2 903.6 187.2 910C184.2 916.4 187.3 920.8 192.6 921.6C197.9 922.4 200.7 920.5 204.7 914.3C207.325 910.115 208.998 905.404 209.6 900.5C210.035 897.587 210.236 894.645 210.2 891.7C210.2 882.6 207.9 877.2 203.2 874.9Z" fill="#2AD17D" />
    <path d="M209.1 887.4C215.6 886.6 220 886 223 890.1C226 894.2 226 898.8 224.3 907.2C222.6 915.6 218.5 924.2 212.1 923.6C205.7 923 203.3 919.3 205.6 910C207.224 902.545 208.392 894.997 209.1 887.4Z" fill="#2AD17D" />
    <path d="M223 897.1C227.8 897 233.6 896.7 235.2 901.9C236.8 907.1 235.4 913.9 232.2 919.3C229 924.7 224.7 925.9 221.5 924C218.3 922.1 218.2 920.5 220.7 913.5C223.2 906.5 223.9 903.6 223 897.1Z" fill="#2AD17D" />
    <path d="M253.8 909.9C249.2 909.6 240.5 909.5 234.4 909.2L232.8 912.1C241.663 915.339 250.905 917.422 260.3 918.3C262.8 913.5 259.9 910.3 253.8 909.9Z" fill="#2AD17D" />
    <path d="M205.2 913.4C209.337 905.36 211.073 896.3 210.2 887.3M225.4 897.8C225.3 906.5 223.8 913.5 219.6 919.3" stroke="black" stroke-width="2.289" stroke-miterlimit="10" stroke-linecap="round" />
    <path d="M312.9 806.9C314.6 800.9 320.5 794.7 323.2 792.9" stroke="#039C78" stroke-width="2.289" stroke-miterlimit="10" stroke-linecap="round" />
    <path d="M319.2 772L314.7 769.4" stroke="#039C78" stroke-width="2.289" stroke-miterlimit="10" stroke-linecap="round" />
    <path d="M240.6 690.9C237.006 688.586 233.944 685.535 231.617 681.949C229.29 678.364 227.75 674.325 227.1 670.1L224.9 655.5C224.852 655.164 224.683 654.858 224.426 654.637C224.168 654.416 223.839 654.296 223.5 654.3C223.144 654.271 222.791 654.379 222.512 654.602C222.233 654.825 222.05 655.146 222 655.5L219.8 670.1C219.193 674.326 217.682 678.372 215.369 681.962C213.057 685.551 209.997 688.6 206.4 690.9L204.5 692.1C204.293 692.25 204.123 692.445 204.002 692.67C203.88 692.895 203.811 693.145 203.8 693.4C203.811 693.642 203.881 693.877 204.003 694.086C204.125 694.295 204.295 694.471 204.5 694.6L206.4 695.8C209.997 698.1 213.057 701.149 215.369 704.738C217.682 708.328 219.193 712.373 219.8 716.6L222 731.2C222.05 731.554 222.233 731.875 222.512 732.098C222.791 732.321 223.144 732.429 223.5 732.4C223.839 732.403 224.168 732.284 224.426 732.063C224.683 731.842 224.852 731.536 224.9 731.2L227.1 716.6C227.75 712.375 229.29 708.336 231.617 704.75C233.944 701.165 237.006 698.114 240.6 695.8L242.4 694.6C242.618 694.487 242.8 694.314 242.924 694.101C243.048 693.889 243.109 693.646 243.1 693.4C243.105 693.141 243.044 692.886 242.921 692.658C242.798 692.43 242.619 692.238 242.4 692.1L240.6 690.9Z" fill="#91FFAD" />
    <path d="M1376.2 297.5C1373.22 295.598 1370.69 293.077 1368.78 290.109C1366.86 287.141 1365.61 283.796 1365.1 280.3L1363.3 268.3C1363.26 268.007 1363.11 267.739 1362.89 267.539C1362.68 267.339 1362.4 267.219 1362.1 267.2C1361.8 267.219 1361.52 267.339 1361.31 267.539C1361.09 267.739 1360.94 268.007 1360.9 268.3L1359.1 280.3C1358.57 283.788 1357.3 287.124 1355.39 290.088C1353.48 293.053 1350.96 295.579 1348 297.5L1346.4 298.5C1346.23 298.608 1346.09 298.755 1345.98 298.929C1345.88 299.103 1345.82 299.298 1345.8 299.5C1345.82 299.702 1345.88 299.897 1345.98 300.071C1346.09 300.245 1346.23 300.392 1346.4 300.5L1348 301.5C1350.96 303.442 1353.48 305.986 1355.39 308.967C1357.31 311.948 1358.57 315.298 1359.1 318.8L1360.9 330.8C1360.95 331.082 1361.09 331.339 1361.32 331.522C1361.54 331.705 1361.81 331.804 1362.1 331.8C1362.39 331.804 1362.66 331.705 1362.89 331.522C1363.11 331.339 1363.25 331.082 1363.3 330.8L1365.1 318.8C1365.61 315.29 1366.86 311.93 1368.77 308.946C1370.69 305.962 1373.22 303.422 1376.2 301.5L1377.8 300.5C1377.96 300.386 1378.09 300.236 1378.17 300.062C1378.26 299.888 1378.3 299.695 1378.3 299.5C1378.3 299.305 1378.26 299.112 1378.17 298.938C1378.09 298.764 1377.96 298.614 1377.8 298.5L1376.2 297.5Z" fill="#66BCFF" />
    <path d="M1464.3 954.2C1459.01 950.8 1454.51 946.313 1451.1 941.036C1447.68 935.759 1445.44 929.815 1444.5 923.6L1441.3 902.2C1441.23 901.697 1440.97 901.237 1440.59 900.905C1440.2 900.574 1439.71 900.395 1439.2 900.4C1438.69 900.395 1438.2 900.574 1437.81 900.905C1437.43 901.237 1437.17 901.697 1437.1 902.2L1433.9 923.6C1432.97 929.815 1430.72 935.759 1427.3 941.036C1423.89 946.313 1419.39 950.8 1414.1 954.2L1411.3 956C1411.01 956.201 1410.78 956.471 1410.62 956.785C1410.46 957.1 1410.39 957.449 1410.4 957.8V958C1410.39 958.351 1410.46 958.7 1410.62 959.015C1410.78 959.329 1411.01 959.599 1411.3 959.8L1414.1 961.6C1419.39 964.99 1423.9 969.475 1427.32 974.753C1430.73 980.032 1432.98 985.981 1433.9 992.2L1437.1 1013.5C1437.15 1014.02 1437.39 1014.51 1437.78 1014.86C1438.17 1015.21 1438.68 1015.4 1439.2 1015.4C1439.72 1015.4 1440.23 1015.21 1440.62 1014.86C1441.01 1014.51 1441.25 1014.02 1441.3 1013.5L1444.5 992.2C1445.42 985.981 1447.67 980.032 1451.08 974.753C1454.5 969.475 1459.01 964.99 1464.3 961.6L1467.1 959.8C1467.4 959.604 1467.65 959.338 1467.82 959.024C1468 958.71 1468.09 958.359 1468.1 958V957.8C1468.09 957.441 1468 957.089 1467.82 956.776C1467.65 956.462 1467.4 956.196 1467.1 956L1464.3 954.2Z" fill="#3442D9" />
    <path d="M789.5 845.4C787.881 844.372 786.5 843.011 785.448 841.407C784.396 839.804 783.698 837.994 783.4 836.1L782.5 829.5C782.448 829.346 782.356 829.209 782.233 829.104C782.109 828.998 781.96 828.928 781.8 828.9C781.641 828.9 781.488 828.963 781.376 829.076C781.263 829.188 781.2 829.341 781.2 829.5L780.2 836.1C779.902 837.994 779.204 839.804 778.152 841.407C777.1 843.011 775.719 844.372 774.1 845.4L773.3 846C773.204 846.041 773.123 846.112 773.07 846.202C773.016 846.291 772.991 846.396 773 846.5C772.991 846.604 773.016 846.709 773.07 846.798C773.123 846.888 773.204 846.959 773.3 847L774.1 847.6C775.719 848.628 777.1 849.989 778.152 851.593C779.204 853.196 779.902 855.006 780.2 856.9L781.2 863.5C781.2 863.659 781.263 863.812 781.376 863.924C781.488 864.037 781.641 864.1 781.8 864.1C781.96 864.072 782.109 864.002 782.233 863.896C782.356 863.791 782.448 863.654 782.5 863.5L783.4 856.9C783.698 855.006 784.396 853.196 785.448 851.593C786.5 849.989 787.881 848.628 789.5 847.6L790.3 847C790.396 846.959 790.477 846.888 790.53 846.798C790.584 846.709 790.609 846.604 790.6 846.5C790.609 846.396 790.584 846.291 790.53 846.202C790.477 846.112 790.396 846.041 790.3 846L789.5 845.4Z" fill="#FF78B9" />
    <path d="M843.2 146.5C842.2 145.859 841.351 145.008 840.712 144.007C840.073 143.005 839.66 141.877 839.5 140.7L838.9 136.7C838.9 136.5 838.7 136.4 838.5 136.4C838.3 136.4 838.1 136.5 838.1 136.7L837.5 140.7C837.34 141.877 836.927 143.005 836.288 144.007C835.649 145.008 834.8 145.859 833.8 146.5L833.3 146.8L833.1 147.1C833.1 147.2 833.2 147.3 833.3 147.4L833.8 147.7C834.8 148.341 835.649 149.192 836.288 150.193C836.927 151.195 837.34 152.323 837.5 153.5L838.1 157.5C838.1 157.7 838.3 157.8 838.5 157.8C838.7 157.8 838.9 157.7 838.9 157.5L839.5 153.5C839.66 152.323 840.073 151.195 840.712 150.193C841.351 149.192 842.2 148.341 843.2 147.7L843.7 147.4C843.8 147.3 843.9 147.2 843.9 147.1L843.7 146.8L843.2 146.5Z" fill="#FF78B9" />
    <path d="M1427.5 630.1C1482.01 630.1 1526.2 585.911 1526.2 531.4C1526.2 476.89 1482.01 432.7 1427.5 432.7C1372.99 432.7 1328.8 476.89 1328.8 531.4C1328.8 585.911 1372.99 630.1 1427.5 630.1Z" fill="#66BCFF" />
    <path d="M1427.5 630.1C1482.01 630.1 1526.2 585.911 1526.2 531.4C1526.2 476.89 1482.01 432.7 1427.5 432.7C1372.99 432.7 1328.8 476.89 1328.8 531.4C1328.8 585.911 1372.99 630.1 1427.5 630.1Z" fill="#66BCFF" />
    <path d="M1427.5 630.1C1482.01 630.1 1526.2 585.911 1526.2 531.4C1526.2 476.89 1482.01 432.7 1427.5 432.7C1372.99 432.7 1328.8 476.89 1328.8 531.4C1328.8 585.911 1372.99 630.1 1427.5 630.1Z" fill="#66BCFF" />
    <path d="M1427.5 639.5C1487.2 639.5 1535.6 591.102 1535.6 531.4C1535.6 471.698 1487.2 423.3 1427.5 423.3C1367.8 423.3 1319.4 471.698 1319.4 531.4C1319.4 591.102 1367.8 639.5 1427.5 639.5Z" stroke="#29CC7A" stroke-width="6.883" stroke-miterlimit="10" />
    <path d="M1354.8 562C1351.4 561.959 1348.02 562.591 1344.86 563.861C1341.7 565.131 1338.83 567.014 1336.4 569.4C1343.05 585.439 1353.86 599.418 1367.7 609.9C1372.5 607.009 1376.23 602.634 1378.32 597.436C1380.42 592.238 1380.76 586.499 1379.3 581.088C1377.85 575.676 1374.67 570.887 1370.25 567.443C1365.83 563.999 1360.4 562.089 1354.8 562Z" fill="#EB459F" />
    <path d="M1344.2 570.2C1344.5 571.9 1349.1 574.1 1355.7 575.1C1362.3 576.1 1367.5 575.3 1368.2 573.7C1370.63 568.579 1372.8 563.339 1374.7 558C1375.8 554.8 1373.6 549.9 1361.5 549C1349.4 548.1 1345.5 549.7 1343.6 552.3C1341.7 554.9 1342.4 561.5 1344.2 570.2Z" fill="#BF0F76" />
    <path d="M1382.9 507.9C1380.8 507.6 1378.3 508.6 1375.3 515.1C1375.6 506.9 1375.4 498.7 1375.4 494.8C1375.4 490.9 1373.6 489.7 1371.5 489.5C1370.91 489.431 1370.31 489.484 1369.75 489.656C1369.18 489.828 1368.65 490.116 1368.2 490.501C1367.75 490.886 1367.39 491.36 1367.13 491.893C1366.87 492.427 1366.72 493.008 1366.7 493.6C1366.4 496.7 1366.1 506.1 1366 509.2C1365.9 512.3 1365.8 512.9 1365.4 512.9C1365 512.9 1364.5 511.9 1363.9 509.7C1362.77 506.062 1361.43 502.49 1359.9 499C1357.9 494.2 1357.3 491.2 1350.8 492.6C1344.3 494 1339.1 499.7 1337.5 503.5C1335.9 507.3 1338 510.6 1342.8 522.4C1339.1 537.8 1339.5 540 1341.9 543.1C1344.3 546.2 1349.8 546 1358.9 545.4C1378.9 544.1 1378.8 542.8 1381 534.1C1383.2 525.4 1384.5 518 1385 515C1385.5 512 1385.7 508.3 1382.9 507.9Z" fill="#FFE75C" />
    <path d="M1371.9 522.7C1372.07 522.654 1372.22 522.565 1372.34 522.443C1372.47 522.32 1372.55 522.167 1372.6 522C1373.38 519.623 1374.28 517.286 1375.3 515C1375.3 513.6 1375.4 512.1 1375.4 510.7C1373.57 513.931 1372.09 517.351 1371 520.9C1362.1 522.3 1357.1 526.7 1355.3 534.9C1355.27 535.15 1355.34 535.403 1355.48 535.607C1355.63 535.811 1355.85 535.951 1356.1 536H1356.3C1356.5 535.989 1356.7 535.916 1356.86 535.791C1357.02 535.666 1357.14 535.494 1357.2 535.3C1358.8 527.7 1363.4 523.8 1371.9 522.7Z" fill="black" />
    <path d="M1352.6 544.2C1352.4 548.3 1352.5 554 1352.5 554L1367.9 555.1L1368.8 541.9L1352.6 544.2Z" fill="#FFE75C" />
    <path d="M1416.3 546.9C1393.8 551.2 1388.5 569.6 1390.3 590.7C1380.3 597.2 1376.6 604.7 1376.7 616C1393.87 626.323 1413.77 631.172 1433.76 629.904C1453.75 628.636 1472.88 621.309 1488.6 608.9L1492.6 552.8C1492.6 552.8 1438.9 542.7 1416.3 546.9Z" fill="#EB459F" />
    <path d="M1380.5 575.1C1367.9 579.3 1360.1 588.6 1358.1 601.6C1370.23 613.585 1385.25 622.231 1401.7 626.7L1414 546.1C1395.7 543.7 1379.5 553.4 1380.5 575.1Z" fill="#EB459F" />
    <path d="M1419.5 560.2C1409 539 1403.4 536.8 1404.5 530.3C1405.6 523.8 1420.1 523.4 1439.4 523.5C1458.7 523.6 1438.4 559 1438.4 559L1419.5 560.2Z" fill="black" />
    <path d="M1416.3 546.9C1393.8 551.2 1388.5 569.6 1390.3 590.7C1380.9 596.8 1377.1 603.9 1376.7 614.1" stroke="black" stroke-width="2.238" stroke-linecap="round" stroke-linejoin="round" />
    <path d="M1447.3 554C1424.3 564.2 1427.3 571.7 1434.1 591.5C1428.97 596.169 1425.15 602.088 1422.99 608.678C1420.83 615.268 1420.42 622.304 1421.8 629.1" stroke="white" stroke-width="2.238" stroke-linecap="round" stroke-linejoin="round" />
    <path d="M1473.8 428.5C1480.6 419.8 1489.6 414.9 1498.1 417.1C1506.6 419.3 1508.4 424.1 1513 450.3C1528.9 458.7 1530.8 460.9 1518.2 479.2C1529.8 490.7 1531.3 496.6 1516.3 509.6L1499.8 510.4C1485.7 498.7 1483.2 498.2 1490 481.3C1467.7 454.6 1470.5 449.7 1473.8 428.5Z" fill="url(#paint1_linear_5_273)" />
    <path d="M1495.3 482.7C1495.3 479.5 1496.9 477 1498.8 477C1500.7 477 1502.4 479.5 1502.4 482.7" stroke="white" stroke-width="2.238" stroke-linecap="round" stroke-linejoin="round" />
    <path d="M1490.8 460.4C1495.88 460.4 1500 456.281 1500 451.2C1500 446.119 1495.88 442 1490.8 442C1485.72 442 1481.6 446.119 1481.6 451.2C1481.6 456.281 1485.72 460.4 1490.8 460.4Z" fill="#4452F2" />
    <path d="M1487.3 446.9C1492.38 446.9 1496.5 442.781 1496.5 437.7C1496.5 432.619 1492.38 428.5 1487.3 428.5C1482.22 428.5 1478.1 432.619 1478.1 437.7C1478.1 442.781 1482.22 446.9 1487.3 446.9Z" fill="#4452F2" />
    <path d="M1475.5 442.8C1480.58 442.8 1484.7 438.681 1484.7 433.6C1484.7 428.519 1480.58 424.4 1475.5 424.4C1470.42 424.4 1466.3 428.519 1466.3 433.6C1466.3 438.681 1470.42 442.8 1475.5 442.8Z" fill="#4452F2" />
    <path d="M1466.4 437.1C1469.49 437.1 1472 434.593 1472 431.5C1472 428.407 1469.49 425.9 1466.4 425.9C1463.31 425.9 1460.8 428.407 1460.8 431.5C1460.8 434.593 1463.31 437.1 1466.4 437.1Z" fill="#4452F2" />
    <path d="M1435.2 565.3C1453.4 565.3 1467.8 555.8 1476.6 547.8C1482.49 542.329 1486.27 534.97 1487.3 527C1488.8 515.2 1491.2 495.1 1492.5 474.6C1494.5 442.7 1474.5 429.9 1455.6 431.6C1436.7 433.3 1421 443.3 1417.5 474.6C1395.6 474.6 1387.7 477.6 1386.2 485.7C1384.7 493.8 1394.4 499.1 1408.7 505.2C1412.1 506.6 1412.5 506.9 1413.1 508.9C1413.7 510.9 1415.9 521 1429.1 531.7C1425.7 539.8 1424.9 546.1 1425.8 555.3C1426.7 564.5 1431.6 565.3 1435.2 565.3Z" fill="url(#paint2_linear_5_273)" />
    <path d="M1434.1 559.3C1426.4 539.8 1422.6 536.6 1408.4 526.1C1406.1 527.1 1404.8 528.4 1404.5 530.3C1403.4 536.8 1409 539 1419.5 560.2L1434.1 559.3Z" fill="#BF0F76" />
    <path d="M1485.8 467.5C1503.8 466.2 1508.5 466.9 1509.4 471.3C1510.3 475.7 1505.1 479.2 1486.7 488.7L1485.8 467.5Z" fill="#FFE75C" />
    <path d="M1446.8 493.8C1445.8 496.6 1445.8 501.3 1445.9 506.5C1446 511.7 1446.5 518.4 1440.1 518.9C1433.7 519.4 1430.3 512 1428.6 508.8C1426.9 505.6 1426.5 505.2 1425.6 504.7C1424.7 504.2 1421 502.3 1417.7 500.6C1414.4 498.9 1412.4 497.2 1413.3 496.2C1414.2 495.2 1422.9 497 1432.3 497.9C1441.7 498.8 1443.2 495.8 1445.9 492.6C1446.4 492 1447.4 492 1446.8 493.8Z" fill="#C40655" />
    <path d="M1445.9 492.6C1443.9 495 1442.5 497.3 1438 497.9C1437.85 498.457 1437.75 499.026 1437.7 499.6C1437.3 504.6 1439.7 508.7 1443 508.7C1444.06 508.664 1445.08 508.277 1445.9 507.6V506.5C1445.8 501.3 1445.8 496.6 1446.8 493.8C1447.8 491 1446.4 492 1445.9 492.6Z" fill="black" />
    <path d="M1444.5 485.9C1447.01 488.622 1450.13 490.712 1453.6 492" stroke="#FFAE00" stroke-width="2.5" stroke-miterlimit="10" stroke-linecap="round" />
    <path d="M1430.8 512.9C1432.8 516 1435.8 519.3 1440.1 518.9C1446.5 518.4 1446 511.7 1445.9 506.5C1445.9 504.6 1445.8 502.8 1445.9 501.1C1439.2 499.9 1431.9 503.1 1430.8 512.9Z" fill="#4452F2" />
    <path d="M1443.3 499.9C1440.2 501.7 1436.6 506.3 1436.3 513.1M1420.6 474.1C1421.5 467.9 1423.1 465.8 1424.2 465.6C1425.3 465.4 1425.2 467.9 1424.8 473.5M1450.6 473.5C1452.7 464.4 1455.7 463.9 1457 464.5C1458.3 465.1 1459.2 467.4 1458.9 474.1" stroke="black" stroke-width="2.238" stroke-linecap="round" stroke-linejoin="round" />
    <path d="M1469.55 482.484C1472.76 480.141 1473.87 476.179 1472.01 473.636C1470.16 471.092 1466.05 470.93 1462.83 473.272C1459.62 475.615 1458.52 479.577 1460.38 482.12C1462.23 484.664 1466.34 484.826 1469.55 482.484Z" fill="#FA80BA" />
    <path d="M1502.4 482.7C1502.4 485.8 1500.8 488.3 1498.8 488.3C1496.8 488.3 1495.3 485.8 1495.3 482.7" stroke="white" stroke-width="2.238" stroke-linecap="round" stroke-linejoin="round" />
    <path d="M1496.9 501.6L1494.2 496.6C1494.15 496.491 1494.12 496.371 1494.12 496.25C1494.12 496.129 1494.15 496.009 1494.2 495.9L1498 490.6C1498.06 490.496 1498.14 490.411 1498.24 490.355C1498.35 490.299 1498.47 490.275 1498.58 490.286C1498.7 490.297 1498.81 490.342 1498.9 490.415C1499 490.489 1499.06 490.588 1499.1 490.7L1501.4 495.5C1501.45 495.591 1501.48 495.695 1501.48 495.8C1501.48 495.905 1501.45 496.009 1501.4 496.1L1498 501.6C1497.93 501.683 1497.85 501.75 1497.76 501.797C1497.66 501.843 1497.56 501.867 1497.45 501.867C1497.34 501.867 1497.24 501.843 1497.14 501.797C1497.05 501.75 1496.97 501.683 1496.9 501.6Z" fill="white" />
    <path d="M1516.3 509.6L1499.8 510.4C1497.6 511.8 1498.4 512.7 1499.8 514L1516.2 513.4C1518.7 511.3 1518 510.9 1516.3 509.6Z" fill="#4452F2" />
    <path d="M1516.2 513.4C1517.3 518 1517.8 521.1 1518.1 523C1518.4 524.9 1517.6 526 1508.1 526.3C1498.6 526.6 1499 525.1 1499.1 522.8C1499.2 520.5 1499.8 514 1499.8 514L1516.2 513.4Z" fill="#FFE75C" />
    <path d="M1488.2 545.1C1493 527.6 1494.6 521.9 1484.8 522.4C1472.37 523.042 1459.98 524.377 1447.7 526.4C1438.7 528 1438.9 529.2 1443.3 559L1488.2 545.1Z" fill="#BF0F76" />
    <path d="M1389.6 541.2C1389.31 541.211 1389.02 541.284 1388.75 541.414C1388.49 541.544 1388.25 541.728 1388.06 541.954C1387.88 542.181 1387.74 542.444 1387.66 542.728C1387.58 543.011 1387.56 543.308 1387.6 543.6L1393 582.8C1393.18 583.976 1393.78 585.045 1394.7 585.8C1396.2 586.9 1399 588.2 1404 588.2C1409 588.2 1411.8 586.9 1413.2 585.8C1414.12 585.045 1414.72 583.976 1414.9 582.8L1420.4 543.6C1420.44 543.3 1420.42 542.994 1420.34 542.704C1420.25 542.413 1420.1 542.145 1419.9 541.917C1419.7 541.689 1419.46 541.507 1419.18 541.383C1418.9 541.259 1418.6 541.197 1418.3 541.2H1389.6Z" fill="white" />
    <path d="M1413.1 548.5C1419 548.1 1421.7 548 1423.1 550.2C1424.5 552.4 1423.5 556.3 1422.3 562.9C1421.1 569.5 1419.6 568.4 1412.1 568.9" stroke="white" stroke-width="5" stroke-linecap="round" stroke-linejoin="round" />
    <path d="M1461.38 453.922C1461.48 453.157 1459.89 452.299 1457.81 452.007C1455.73 451.715 1453.96 452.099 1453.85 452.865C1453.74 453.63 1455.34 454.488 1457.42 454.78C1459.5 455.072 1461.27 454.688 1461.38 453.922Z" fill="black" />
    <path d="M1426.71 456.875C1426.8 456.219 1425.72 455.525 1424.3 455.325C1422.88 455.125 1421.65 455.495 1421.56 456.152C1421.47 456.808 1422.54 457.502 1423.97 457.702C1425.39 457.902 1426.62 457.532 1426.71 456.875Z" fill="black" />
    <path d="M1479.4 656C1494.48 656 1506.7 643.777 1506.7 628.7C1506.7 613.623 1494.48 601.4 1479.4 601.4C1464.32 601.4 1452.1 613.623 1452.1 628.7C1452.1 643.777 1464.32 656 1479.4 656Z" fill="#EB459F" />
    <path d="M1432.3 559C1461.6 547.7 1480.5 540.5 1493.8 538.4C1500.06 537.35 1506.49 538.149 1512.3 540.7C1532 549.5 1527 570.3 1520.5 580.3C1532.9 588.9 1539.1 604.7 1526.3 622.8C1537.3 632.2 1543.9 652.7 1529.6 665.2C1515.3 677.7 1493.8 673.8 1485 654.9L1432.3 559Z" fill="#EB459F" />
    <path d="M1455.9 620.2C1457.5 621.2 1462.5 619.4 1468.2 615.1C1473.9 610.8 1477 606.4 1476.4 604.6C1474.2 598.5 1470.9 591.3 1469.3 588C1467.7 584.7 1462.4 582.9 1452.7 591.3C1443 599.7 1441.4 604 1441.9 607.4C1442.4 610.8 1448 615.1 1455.9 620.2Z" fill="#BF0F76" />
    <path d="M1449.5 585.1C1458.8 574.7 1462.4 567.5 1463 564.2C1463.6 560.9 1463.8 558.1 1456.1 551.1C1448.4 544.1 1444.1 542 1440.3 542.3C1436.5 542.6 1433 546.9 1429.7 555.7C1429.2 557.2 1434.7 560.6 1433.1 561C1424 563.8 1421.4 576 1420 581.2C1418.6 586.4 1418.4 590.9 1425.3 595C1432.2 599.1 1435 601.4 1449.5 585.1Z" fill="#FFE75C" />
    <path d="M1437.2 550.8C1425.1 551.2 1419.5 552.1 1416.9 553.4C1414.3 554.7 1414.4 557.4 1414.8 560C1415.2 562.6 1415.7 563.5 1422.2 563.7C1428.7 563.9 1437.2 563.7 1437.2 563.7V550.8Z" fill="#FFE75C" />
    <path d="M1441.1 592.7L1448.1 601.1L1460.3 591.3L1451.8 579L1441.1 592.7Z" fill="#FFE75C" />
    <path d="M1345.5 494.9C1344.75 495.285 1344.04 495.754 1343.4 496.3C1343.12 496.497 1342.91 496.778 1342.8 497.101C1342.7 497.425 1342.69 497.775 1342.8 498.1C1343.5 501.7 1346.1 507.7 1351.5 518.1C1351.59 518.269 1351.71 518.413 1351.87 518.518C1352.03 518.623 1352.21 518.686 1352.4 518.7L1352.8 518.5C1352.92 518.46 1353.02 518.393 1353.11 518.306C1353.19 518.219 1353.26 518.114 1353.29 517.998C1353.33 517.882 1353.34 517.759 1353.33 517.638C1353.31 517.517 1353.27 517.401 1353.2 517.3C1343.8 499.1 1343.7 496.1 1345.5 494.9Z" fill="black" />
    <path d="M1439.3 551.5C1434.2 554.1 1433.8 558.8 1434.7 562.8C1429.7 565.1 1428.4 567.9 1429.3 574.1C1426.6 575.7 1424.3 577.7 1425.2 582.7" stroke="black" stroke-width="2.238" stroke-linecap="round" stroke-linejoin="round" />
    <path d="M1441.6 593.2L1445.9 589.2L1444.4 596.6L1441.6 593.2Z" fill="black" />
    <path d="M1352.5 545.8L1365.2 545L1352.5 551.8V545.8Z" fill="black" />
    <path d="M1343.2 564.8L1370.7 568.2L1370.6 577.3L1341.9 575.5L1343.2 564.8Z" fill="#EB459F" />
    <path d="M1505.5 620.5C1503.75 614.951 1500.28 610.105 1495.58 606.669C1490.89 603.233 1485.22 601.387 1479.4 601.4M1489.4 580.9C1484.98 586.609 1482.96 593.825 1483.8 601" stroke="black" stroke-width="2.238" stroke-linecap="round" stroke-linejoin="round" />
    <path d="M1485.8 587.1L1483.2 582.7" stroke="black" stroke-width="2.238" stroke-linecap="round" stroke-linejoin="round" />
    <path d="M1259.3 840.4C1254.72 839.41 1249.99 839.376 1245.4 840.3C1244.6 834.6 1240 829.1 1228.5 818.6C1213.7 805.1 1209.9 788.2 1209.9 771.1L1168.9 804.4L1159.1 845.6C1173.8 842.1 1188.7 839.9 1204.2 846.2L1209.4 848.6C1210.15 848.995 1210.79 849.571 1211.26 850.275C1211.73 850.979 1212.02 851.79 1212.1 852.634C1212.18 853.477 1212.05 854.327 1211.71 855.107C1211.38 855.887 1210.86 856.572 1210.2 857.1C1205.7 860.6 1202.6 863.8 1202.3 864C1198.55 867.638 1195.07 871.549 1191.9 875.7C1174.7 899.2 1179.7 918 1201.5 916.8C1220.6 915.8 1246 899.9 1260.4 881.2C1274.8 862.5 1275.9 844.4 1259.3 840.4ZM1254.6 874.1C1241.1 891.5 1216.4 906.8 1205.9 906.8C1195.4 906.8 1198.3 893.3 1212.5 876.6C1226.7 859.9 1246.6 846.2 1257.1 846.2C1267.6 846.2 1266.9 858.2 1254.6 874.1Z" fill="#FFC619" />
    <path d="M1209.8 771.2C1210.1 778.9 1208.3 788.2 1204.6 797.7C1195.7 820.6 1177.9 839.8 1162.1 844.9L1169.1 843.5C1183.4 835.8 1198.2 818.4 1206 798.2C1208.09 793.085 1209.6 787.752 1210.5 782.3C1210.1 778.58 1209.9 774.841 1209.9 771.1L1209.8 771.2Z" fill="#FF8C19" />
    <path d="M1197.44 811.811C1212.78 785.977 1214.12 758.452 1200.45 750.331C1186.77 742.211 1163.25 756.57 1147.91 782.404C1132.57 808.237 1131.22 835.763 1144.9 843.883C1158.58 852.004 1182.1 837.645 1197.44 811.811Z" fill="#FFC619" />
    <path d="M1191 753.5C1175.8 753.5 1154.4 774.7 1144.4 799.8C1134.4 824.9 1139.9 840.9 1155 838.8C1170.1 836.7 1188.1 817.9 1197.9 795.8C1207.7 773.7 1205.4 753.5 1191 753.5Z" fill="#FF8C19" />
    <path d="M1191 753.5C1175.8 753.5 1154.4 774.7 1144.4 799.8C1134.4 824.9 1139.9 840.9 1155 838.8C1170.1 836.7 1188.1 817.9 1197.9 795.8C1207.7 773.7 1205.4 753.5 1191 753.5Z" fill="#FF8C19" />
    <path d="M1197.9 795.8C1199.76 791.485 1201.29 787.04 1202.5 782.5C1201.74 781.773 1200.85 781.204 1199.87 780.827C1198.89 780.449 1197.85 780.27 1196.8 780.3C1186.6 780.3 1172.2 794.6 1165.4 811.5C1161.1 822.4 1161.2 831.1 1164.7 835.3C1177 828.5 1190.2 813.1 1197.9 795.8Z" fill="black" />
    <path d="M1196.6 798.5C1193.64 804.598 1190.09 810.393 1186 815.8C1179.2 818.3 1177.6 824.7 1174 831.9C1169.5 840.9 1161.8 849.5 1148.2 855.3C1124.8 865.3 1106.7 854.8 1101.1 849.2C1095.5 843.6 1098.2 836.7 1108.2 835.8C1118.2 834.9 1130.8 834.6 1139.5 821.7C1140.81 819.737 1141.95 817.663 1142.9 815.5C1150.9 796.4 1163.6 796.2 1170.7 800.6C1180 794.7 1189.2 794.6 1196.6 798.5Z" fill="url(#paint3_linear_5_273)" />
    <path d="M1170.7 800.6C1159.8 808 1157.8 821.7 1150.2 830.7C1142.6 839.7 1135.5 841 1135.5 841" stroke="black" stroke-width="1.703" stroke-miterlimit="10" stroke-linecap="round" />
    <path d="M1201 758.7L1199.5 761.7C1197.6 765.2 1194.9 765.4 1189.9 765.4C1184.9 765.4 1185.6 762.6 1191.6 753.5C1193.47 753.536 1195.31 754.029 1196.94 754.935C1198.58 755.841 1199.97 757.134 1201 758.7ZM1190.6 753.5C1185.2 762.3 1183.5 765.4 1179.1 765.4C1174.7 765.4 1170.6 765.6 1174.8 760.2C1175.16 759.786 1175.49 759.352 1175.8 758.9C1181 755.6 1186 753.6 1190.6 753.5Z" fill="white" />
    <path d="M1244.6 850.1C1246.2 847.4 1246.4 844.6 1246.4 841.5C1246.4 841.386 1246.38 841.273 1246.33 841.169C1246.28 841.065 1246.22 840.972 1246.13 840.896C1246.05 840.82 1245.95 840.763 1245.84 840.73C1245.73 840.696 1245.61 840.686 1245.5 840.7C1245.29 840.7 1245.08 840.784 1244.93 840.934C1244.78 841.084 1244.7 841.288 1244.7 841.5C1244.7 845.7 1244.3 849.1 1240.1 852.6C1241.56 851.691 1243.06 850.856 1244.6 850.1Z" fill="black" />
    <path d="M1226.6 871.1L1234.2 891.2" stroke="#FFC619" stroke-width="5.643" stroke-miterlimit="10" stroke-linecap="round" />
    <path d="M1234.9 863.9L1242.5 884" stroke="#FFC619" stroke-width="5.643" stroke-miterlimit="10" stroke-linecap="round" />
    <path d="M1243.2 856.7L1250.8 876.7" stroke="#FFC619" stroke-width="5.643" stroke-miterlimit="10" stroke-linecap="round" />
    <path d="M1260.9 859.2C1258.9 854.1 1253.1 853.5 1248 858L1227.4 875.9C1222.2 880.4 1219.6 888.3 1221.5 893.4C1223.4 898.5 1229.3 899 1234.4 894.5L1255.1 876.6C1260.2 872.1 1262.8 864.3 1260.9 859.2Z" stroke="#FF8C19" stroke-width="3.762" stroke-miterlimit="10" stroke-linecap="round" />
    <path d="M1254.4 875.1C1256.49 873.192 1258.46 871.155 1260.3 869C1262.03 867.001 1263.29 864.645 1264 862.1C1265.2 857.1 1263.4 851.6 1261.4 846.3C1260.4 843.7 1259.3 841 1258.2 838.4L1256.5 834.4C1255.9 833 1255.3 831.6 1254.8 830.2C1253.72 827.341 1252.89 824.398 1252.3 821.4C1251.62 818.374 1251.18 815.297 1251 812.2C1250.94 811.208 1251.28 810.234 1251.93 809.486C1252.59 808.739 1253.51 808.277 1254.5 808.2C1255.49 808.145 1256.47 808.48 1257.21 809.134C1257.96 809.789 1258.42 810.71 1258.5 811.7C1258.6 811.9 1258.5 812.2 1258.5 812.3C1258.03 817.785 1258.58 823.31 1260.1 828.6C1260.44 829.928 1260.88 831.232 1261.4 832.5L1262.8 836.6C1263.8 839.4 1264.8 842.1 1265.7 844.9C1266.63 847.78 1267.37 850.72 1267.9 853.7C1268.59 856.818 1268.49 860.058 1267.62 863.13C1266.75 866.202 1265.12 869.009 1262.9 871.3C1260.89 873.524 1258.76 875.628 1256.5 877.6C1256.34 877.742 1256.15 877.85 1255.94 877.917C1255.74 877.984 1255.52 878.009 1255.31 877.99C1255.09 877.972 1254.88 877.91 1254.69 877.808C1254.5 877.707 1254.34 877.568 1254.2 877.4C1253.94 877.078 1253.82 876.67 1253.86 876.26C1253.9 875.85 1254.09 875.471 1254.4 875.2V875.1Z" fill="#FF8C19" />
    <path d="M1259.43 806.828C1260.65 808.047 1261.33 809.7 1261.33 811.424C1261.33 813.148 1260.65 814.801 1259.43 816.02L1258.15 817.293C1257.27 818.174 1256.08 818.669 1254.83 818.669C1253.59 818.669 1252.39 818.174 1251.51 817.293L1250.24 816.02C1249.02 814.801 1248.33 813.148 1248.33 811.424C1248.33 809.7 1249.02 808.047 1250.24 806.828C1251.45 805.609 1253.11 804.924 1254.83 804.924C1256.56 804.924 1258.21 805.609 1259.43 806.828Z" fill="white" />
    <path d="M1257.5 813.472C1259.01 811.957 1259.01 809.494 1257.48 807.971C1255.96 806.448 1253.5 806.442 1251.98 807.957C1250.47 809.472 1250.47 811.935 1252 813.458C1253.52 814.981 1255.98 814.988 1257.5 813.472Z" stroke="black" stroke-width="1.703" stroke-miterlimit="10" stroke-linecap="round" />
    <path d="M1143 766.4L1128.9 758.5C1127.96 757.97 1127.18 757.2 1126.63 756.268C1126.09 755.337 1125.8 754.279 1125.8 753.2V752.2C1125.79 751.391 1125.93 750.587 1126.24 749.835C1126.54 749.083 1126.98 748.399 1127.55 747.822C1128.12 747.245 1128.8 746.786 1129.54 746.474C1130.29 746.161 1131.09 746 1131.9 746C1133.22 745.985 1134.5 746.395 1135.56 747.17C1136.63 747.945 1137.41 749.043 1137.8 750.3L1143 766.4Z" fill="#4AB0FF" />
    <path d="M1124.9 804.3L1115.8 811C1115.19 811.447 1114.47 811.728 1113.72 811.815C1112.96 811.903 1112.2 811.794 1111.5 811.5L1110.9 811.2C1109.85 810.738 1109.02 809.883 1108.59 808.818C1108.16 807.753 1108.16 806.562 1108.6 805.5C1108.99 804.681 1109.62 804.002 1110.4 803.554C1111.19 803.107 1112.1 802.913 1113 803L1124.9 804.3Z" fill="#66BCFF" />
    <path d="M537.2 82.7C533.855 82.6841 530.558 83.4868 527.594 85.0381C524.631 86.5895 522.093 88.8422 520.2 91.6C514.666 89.1084 508.669 87.8134 502.6 87.8C492.365 87.7701 482.461 91.4264 474.7 98.1H557.2C556.016 93.6954 553.417 89.802 549.803 87.0194C546.189 84.2367 541.761 82.719 537.2 82.7Z" fill="#6874F7" />
    <path d="M1519.2 121.3C1519.1 121.5 1518.9 121.6 1518.8 121.5C1515.7 119.3 1514.3 119.7 1513.5 120.8C1512.7 121.9 1512.7 123.7 1513 126.3C1513.04 126.55 1512.99 126.806 1512.86 127.025C1512.74 127.243 1512.54 127.411 1512.3 127.5C1512.1 127.6 1511.8 127.6 1511.7 127.4C1509.6 125.3 1508.5 124.3 1507 124C1505.5 123.7 1502.7 124.5 1500.9 127.5L1494.9 121C1498.69 118.141 1501.35 114.031 1502.4 109.4C1503.2 105.7 1504.3 106 1508.4 109.3C1512.54 112.628 1516.18 116.535 1519.2 120.9C1519.25 120.955 1519.28 121.026 1519.28 121.1C1519.28 121.174 1519.25 121.245 1519.2 121.3ZM1465.7 131.6C1465.8 131.63 1465.91 131.636 1466.01 131.619C1466.12 131.601 1466.21 131.561 1466.3 131.5C1468.3 128.9 1469.8 128.7 1470.9 129.2C1472 129.7 1472.6 131.1 1473.1 132.9C1473.16 133.084 1473.29 133.242 1473.45 133.35C1473.61 133.459 1473.81 133.511 1474 133.5C1474.2 133.4 1474.5 133.3 1474.6 133C1475.5 131.1 1476.1 130.2 1477.2 129.5C1478 129.068 1478.92 128.885 1479.83 128.974C1480.73 129.063 1481.6 129.42 1482.3 130L1485 124.4C1481.57 123.073 1478.73 120.552 1477 117.3C1475.1 114.1 1474.3 114.6 1471.6 118.5C1468.84 122.291 1466.8 126.564 1465.6 131.1C1465.56 131.182 1465.54 131.277 1465.56 131.368C1465.58 131.459 1465.63 131.541 1465.7 131.6Z" fill="#808AFF" />
    <path d="M1491 143.9C1497.85 143.9 1503.4 138.348 1503.4 131.5C1503.4 124.652 1497.85 119.1 1491 119.1C1484.15 119.1 1478.6 124.652 1478.6 131.5C1478.6 138.348 1484.15 143.9 1491 143.9Z" fill="#808AFF" />
    <path d="M1526.7 74.3C1526.6 74.5001 1526.44 74.6647 1526.24 74.7719C1526.05 74.8792 1525.82 74.9238 1525.6 74.9C1516.4 72.3 1513.2 73.9 1511.9 76.6C1510.6 79.3 1512.1 82.5 1514.5 86.9C1514.71 87.3249 1514.74 87.815 1514.59 88.2643C1514.44 88.7135 1514.12 89.0856 1513.7 89.3C1513.46 89.451 1513.18 89.5312 1512.9 89.5312C1512.62 89.5312 1512.34 89.451 1512.1 89.3C1506.4 86.7 1503.4 85.5 1499.9 85.6C1497.71 85.638 1495.61 86.4378 1493.95 87.8616C1492.28 89.2854 1491.17 91.2441 1490.8 93.4L1475 85.7C1480 77.3 1479.6 68.7 1477.5 60.5C1475.4 52.3 1477.8 51.5 1490.5 55.7C1503.23 59.7805 1515.29 65.7106 1526.3 73.3C1526.46 73.4112 1526.58 73.5644 1526.65 73.7416C1526.72 73.9188 1526.74 74.1125 1526.7 74.3Z" fill="#3442D9" />
    <path d="M1487.3 78.1C1488.9 84.2 1490.4 95.4 1490.4 95.4" stroke="black" stroke-width="1.233" stroke-linecap="round" stroke-linejoin="round" />
    <path d="M1412.2 111C1412.4 111.088 1412.62 111.117 1412.83 111.081C1413.04 111.045 1413.24 110.948 1413.4 110.8C1417.6 104.8 1420.8 104.2 1423.4 105.3C1426 106.4 1427.3 109.1 1428.6 113.1C1428.73 113.486 1428.99 113.815 1429.34 114.033C1429.69 114.251 1430.09 114.345 1430.5 114.3C1430.78 114.257 1431.05 114.142 1431.28 113.967C1431.51 113.792 1431.69 113.563 1431.8 113.3C1433.8 108.9 1435 106.8 1437.3 105.2C1439.6 103.6 1444.3 102.9 1448.5 105.7L1453.8 93.1C1444.9 90.2 1439.4 84.5 1435.3 78.2C1431.2 71.9 1429.2 72.7 1423.7 81.5C1418.03 90.2324 1414 99.9237 1411.8 110.1C1411.77 110.273 1411.79 110.45 1411.87 110.61C1411.94 110.769 1412.05 110.905 1412.2 111Z" fill="#3442D9" />
    <path d="M1436.9 90.6C1439.18 95.2747 1442.18 99.5606 1445.8 103.3" stroke="black" stroke-width="1.233" stroke-linecap="round" stroke-linejoin="round" />
    <path d="M1447.6 101.3C1453.4 99.1 1460.5 103.2 1463.4 110.4C1466.3 117.6 1464 125.3 1458.2 127.6L1475 126.5C1489.2 121 1496 113.3 1490.5 99.2C1486.4 88.8 1477 85.4 1464.2 90.4C1451.4 95.4 1447.6 101.3 1447.6 101.3Z" fill="black" />
    <path d="M1458.8 97.7C1464 104.4 1467.1 108.3 1468.5 109.3C1469.9 110.3 1469.9 109.5 1469.1 105.9C1468.3 102.3 1465.8 89.6 1465.8 89.6L1458.8 97.7Z" fill="white" />
    <path d="M1450.3 105.6C1454.1 110.5 1456.4 113.4 1457.4 114.1C1458.4 114.8 1458.4 114.2 1457.9 111.5C1457.4 108.8 1455.4 99.6 1455.4 99.6L1450.3 105.6Z" fill="#808AFF" />
    <path d="M1475.6 124.3C1475.1 118.1 1474.8 114.5 1475.1 113.3C1475.4 112.1 1475.8 112.5 1477.1 114.8L1483.4 125.2L1475.6 124.3Z" fill="white" />
    <path d="M1451.6 125.2C1451.97 124.097 1452.58 123.092 1453.4 122.26C1454.21 121.429 1455.2 120.793 1456.3 120.4C1459.3 119.4 1462.9 118.8 1470.5 120.5C1473.09 121.179 1475.82 121.003 1478.3 120C1485.7 117.2 1490.4 108.5 1488.8 100.6C1487.2 92.7 1479.9 88.7 1472.5 91.6C1468.91 93.0376 1465.93 95.6923 1464.1 99.1C1459.1 108.4 1457.2 110.9 1452.8 112.9C1451.82 113.369 1450.76 113.637 1449.68 113.688C1448.6 113.74 1447.52 113.574 1446.5 113.2C1441.7 111.4 1439.4 105.3 1442.4 97.8C1444.1 93.5956 1446.83 89.8802 1450.32 86.9871C1453.81 84.0941 1457.97 82.1139 1462.42 81.2244C1466.87 80.335 1471.47 80.564 1475.81 81.8909C1480.15 83.2179 1484.09 85.6012 1487.28 88.8271C1490.47 92.0529 1492.81 96.0203 1494.08 100.373C1495.36 104.726 1495.54 109.328 1494.6 113.766C1493.66 118.205 1491.63 122.34 1488.7 125.802C1485.77 129.264 1482.02 131.943 1477.8 133.6C1471.04 136.18 1463.55 136.037 1456.9 133.2C1451.4 130.8 1450.8 127.7 1451.6 125.2Z" fill="url(#paint4_linear_5_273)" />
    <path d="M1483.9 88.8C1481.96 87.7627 1479.81 87.1706 1477.62 87.0668C1475.42 86.963 1473.23 87.3501 1471.2 88.2C1466.9 89.8 1463.5 93 1460.9 97.5C1458.3 102 1452.8 110.9 1447.9 111.1C1446.74 111.175 1445.58 110.969 1444.52 110.499C1443.46 110.029 1442.52 109.309 1441.8 108.4C1441.8 108.5 1441.9 108.6 1441.9 108.7C1442.38 109.832 1443.17 110.806 1444.18 111.513C1445.19 112.22 1446.37 112.631 1447.6 112.7H1448C1452.4 112.5 1456.8 108.1 1462.2 98.4C1464.26 94.4488 1467.67 91.3635 1471.8 89.7C1473.62 88.9323 1475.58 88.5788 1477.56 88.6653C1479.53 88.7518 1481.46 89.276 1483.2 90.2C1485.04 91.2359 1486.63 92.6724 1487.84 94.4033C1489.05 96.1342 1489.86 98.1152 1490.2 100.2C1492.1 109.3 1486.8 119.4 1478.4 122.7C1475.55 123.735 1472.45 123.908 1469.5 123.2C1461.3 121.6 1455.9 122 1452.9 124.6L1452.5 125C1451.95 125.554 1451.59 126.273 1451.48 127.049C1451.37 127.825 1451.52 128.616 1451.9 129.3C1451.97 128.608 1452.18 127.938 1452.52 127.335C1452.87 126.731 1453.34 126.208 1453.9 125.8C1456.4 123.5 1461.6 123.2 1469.2 124.7C1472.45 125.525 1475.88 125.316 1479 124.1C1488 120.6 1493.7 109.7 1491.7 99.9C1491.33 97.5795 1490.43 95.3744 1489.08 93.4513C1487.73 91.5283 1485.96 89.9378 1483.9 88.8Z" fill="#EB459F" />
    <path d="M1499.5 64.6C1515.3 69.8 1525.6 74 1525.6 74M1513.3 88.3C1508.1 82.9 1501 76 1495.2 70.3M1429.9 112.9C1428.6 104.1 1429.2 90.5 1429.2 90.5M1412.6 110.4C1415.61 103.153 1419.33 96.2201 1423.7 89.7" stroke="black" stroke-width="1.233" stroke-linecap="round" stroke-linejoin="round" />
    <path d="M1403.9 154.3H1403.5C1401.8 152.1 1400.7 152 1399.8 152.7C1398.95 153.798 1398.43 155.116 1398.3 156.5C1398.2 156.9 1397.9 157.3 1397.5 157.3C1397.3 157.3 1397.2 157.2 1397.1 157C1396.1 155.1 1395.5 154.2 1394.4 153.6C1393.3 153 1391.2 153 1389.2 154.8L1386.3 148.8C1389.7 147.566 1392.52 145.105 1394.2 141.9C1395.6 139.5 1396.3 139.9 1398.6 143.2C1400.94 146.491 1402.73 150.138 1403.9 154C1403.92 154.019 1403.94 154.042 1403.95 154.068C1403.96 154.094 1403.97 154.122 1403.97 154.15C1403.97 154.178 1403.96 154.206 1403.95 154.232C1403.94 154.258 1403.92 154.281 1403.9 154.3ZM1362.8 150.1C1362.9 150.2 1363.1 150.3 1363.2 150.2C1365.3 148.7 1366.4 148.9 1367.1 149.6C1367.69 150.521 1367.93 151.617 1367.8 152.7C1367.8 152.843 1367.85 152.982 1367.94 153.093C1368.03 153.203 1368.16 153.276 1368.3 153.3C1368.41 153.316 1368.52 153.306 1368.62 153.272C1368.73 153.237 1368.82 153.178 1368.9 153.1C1369.58 152.177 1370.52 151.48 1371.6 151.1C1372.27 150.958 1372.96 151.026 1373.59 151.294C1374.21 151.563 1374.74 152.019 1375.1 152.6L1378.3 149.1C1376.1 147.39 1374.61 144.936 1374.1 142.2C1373.4 139.5 1372.7 139.7 1369.9 141.9C1367.04 144.043 1364.63 146.727 1362.8 149.8C1362.78 149.819 1362.76 149.842 1362.75 149.868C1362.74 149.894 1362.73 149.922 1362.73 149.95C1362.73 149.978 1362.74 150.006 1362.75 150.032C1362.76 150.058 1362.78 150.081 1362.8 150.1Z" fill="#3442D9" />
    <path d="M1381.2 165C1386.39 165 1390.6 160.791 1390.6 155.6C1390.6 150.409 1386.39 146.2 1381.2 146.2C1376.01 146.2 1371.8 150.409 1371.8 155.6C1371.8 160.791 1376.01 165 1381.2 165Z" fill="#3442D9" />
    <path d="M705.1 901.6C706.063 902.517 707.1 903.353 708.2 904.1C712.5 906.9 713.6 910 711.7 912.5C709.8 915 704.5 914.8 700.1 911.5C695.7 908.2 693.8 903.3 695.8 900.5C697.8 897.7 701.3 898 705.1 901.6Z" fill="#FFC069" />
    <path d="M618.962 989.913L637.998 988.348L638.971 1000.18L619.935 1001.74L618.962 989.913Z" fill="#3442D9" />
    <path d="M744.6 975.5C754.4 969.6 753.5 962.1 742.4 958.9L722 953C710.9 949.8 693.7 952.1 683.9 958.1L626.8 992.6C617 998.6 618 1006 629 1009.2L649.4 1015.1C660.5 1018.3 677.7 1016 687.5 1010L744.6 975.5Z" fill="#3442D9" />
    <path d="M731.315 956.125L750.351 954.56L751.324 966.39L732.288 967.955L731.315 956.125Z" fill="#D11583" />
    <path d="M743.6 963.8C753.5 957.8 752.5 950.3 741.4 947.1L721 941.3C709.9 938.1 692.8 940.4 682.9 946.3L625.9 980.8C616 986.8 617 994.3 628.1 997.4L648.5 1003.3C659.6 1006.5 676.7 1004.2 686.6 998.2L743.6 963.8Z" fill="#5865F2" />
    <path d="M744.6 975.5L743.4 976.2L700.6 952.4C708.1 951.2 715.9 951.3 722 953L742.4 958.9C744.111 959.403 745.756 960.108 747.3 961C753.5 964.7 752.7 970.6 744.6 975.5Z" fill="#D11583" />
    <path d="M747.3 961C746.161 962.052 744.922 962.99 743.6 963.8L742.5 964.4L700.6 952.4L681.8 947L682.9 946.3C692.8 940.4 709.9 938.1 721 941.3L741.4 947.1C750.8 949.8 753 955.6 747.3 961Z" fill="#EB459F" />
    <path d="M687.7 997.6L742.5 964.4L681.8 947L627 980.1L687.7 997.6Z" fill="black" />
    <path d="M743.4 976.2L742.5 964.4L687.7 997.6L688.7 1009.3L743.4 976.2Z" fill="black" />
    <path d="M743.2 959.2C753.1 953.3 752.1 945.8 741 942.6L720.6 936.7C709.5 933.5 692.4 935.8 682.5 941.8L625.5 976.3C615.6 982.3 616.6 989.7 627.7 992.9L648.1 998.8C659.2 1002 676.3 999.7 686.2 993.7L743.2 959.2Z" fill="white" />
    <path d="M621.8 977.4C631.8 1009.2 629.5 1012.4 640.7 1000.4C651.9 988.4 662.1 981.8 694 992.9C732.5 1006.4 728.7 1006 730.9 975.8C731.9 963.1 739.7 955.8 744.9 944.9L621.8 977.4Z" fill="#FFC619" />
    <path d="M657.814 994.516C675.971 991.964 689.787 983.466 688.673 975.536C687.558 967.606 671.935 963.246 653.778 965.798C635.62 968.35 621.804 976.847 622.919 984.777C624.033 992.707 639.656 997.067 657.814 994.516Z" fill="#EB459F" />
    <path d="M693.042 982.817C711.199 980.265 725.015 971.767 723.901 963.837C722.786 955.907 707.163 951.547 689.006 954.099C670.848 956.651 657.033 965.148 658.147 973.078C659.262 981.009 674.884 985.369 693.042 982.817Z" fill="#D11583" />
    <path d="M717.691 962.59C735.849 960.038 749.665 951.54 748.55 943.61C747.436 935.68 731.813 931.32 713.655 933.872C695.498 936.424 681.682 944.921 682.796 952.851C683.911 960.781 699.534 965.141 717.691 962.59Z" fill="#EB459F" />
    <path d="M720.7 930.5L620.3 969.7C609.6 973.6 610.8 982.9 622.9 982.4C632.996 982.022 642.86 985.489 650.5 992.1C656.1 997 663.7 997.1 671.4 991.3C679.1 985.5 686.6 981.6 696 979.5C705.4 977.4 715.7 971.1 720.7 964.2C725.7 957.3 734.8 952.8 740.5 951.5C746.2 950.2 753.3 949 753.2 941.1C753.1 933.2 740.2 929.2 720.7 930.5Z" fill="#29CC7A" />
    <path d="M616.628 960.11L635.664 958.545L636.637 970.375L617.601 971.94L616.628 960.11Z" fill="#3442D9" />
    <path d="M742.1 945.7C752 939.7 751 932.2 739.9 929L719.5 923.2C708.4 920 691.3 922.3 681.4 928.2L624.4 962.7C614.5 968.7 615.5 976.2 626.6 979.3L647 985.2C658.1 988.4 675.2 986.1 685.1 980.1L742.1 945.7Z" fill="#3442D9" />
    <path d="M729.442 930.786L748.542 929.258L749.492 941.128L730.392 942.656L729.442 930.786Z" fill="#D11583" />
    <path d="M741.2 933.9C751 927.9 750 920.4 738.9 917.2L718.5 911.4C707.4 908.2 690.3 910.5 680.4 916.4L623.4 950.9C613.5 956.9 614.5 964.4 625.6 967.6L646 973.4C657.1 976.6 674.2 974.3 684.1 968.4L741.2 933.9Z" fill="#5865F2" />
    <path d="M742.1 945.6L741 946.3L698.1 922.5C705.6 921.3 713.5 921.4 719.5 923.2L739.9 929C741.642 929.505 743.32 930.209 744.9 931.1C751 934.8 750.2 940.8 742.1 945.6Z" fill="#D11583" />
    <path d="M744.9 931.1C743.742 932.128 742.504 933.065 741.2 933.9L740 934.6L698.1 922.5L679.3 917.1L680.4 916.4C690.3 910.5 707.5 908.2 718.5 911.4L738.9 917.3C748.4 920 750.5 925.8 744.9 931.1Z" fill="#EB459F" />
    <path d="M685.3 967.7L740 934.6L679.3 917.1L624.5 950.2L685.3 967.7Z" fill="#3442D9" />
    <path d="M741 946.3L740 934.6L685.3 967.7L686.2 979.5L741 946.3Z" fill="black" />
    <path d="M682.3 942.4L668.2 898" stroke="black" stroke-width="2.096" stroke-miterlimit="10" stroke-linecap="round" />
    <path d="M676.7 936.3C683.162 936.3 688.4 931.062 688.4 924.6C688.4 918.138 683.162 912.9 676.7 912.9C670.238 912.9 665 918.138 665 924.6C665 931.062 670.238 936.3 676.7 936.3Z" fill="#29CC7A" />
    <path d="M674.4 917.5L668.2 898" stroke="black" stroke-width="2.096" stroke-miterlimit="10" stroke-linecap="round" />
    <path d="M668.2 902.1C670.464 902.1 672.3 900.264 672.3 898C672.3 895.736 670.464 893.9 668.2 893.9C665.936 893.9 664.1 895.736 664.1 898C664.1 900.264 665.936 902.1 668.2 902.1Z" fill="#EB459F" />
    <path d="M658.278 969.329C662.597 968.714 665.885 966.709 665.62 964.85C665.355 962.991 661.639 961.982 657.32 962.597C653 963.212 649.713 965.217 649.978 967.076C650.242 968.935 653.958 969.944 658.278 969.329Z" fill="black" />
    <path d="M730.591 925.45C734.911 924.836 738.198 922.83 737.933 920.971C737.669 919.112 733.953 918.103 729.633 918.718C725.314 919.333 722.026 921.338 722.291 923.197C722.556 925.056 726.272 926.065 730.591 925.45Z" fill="black" />
    <path d="M799.6 992.1C791 998.3 779.8 998.7 774.7 993C769.6 987.3 773.3 982.9 783.1 980.6C786.28 979.826 789.102 977.992 791.1 975.4C796.6 968.1 801.7 965.6 806 970.5C810.3 975.4 808.2 985.9 799.6 992.1ZM607.1 1042.7C606.6 1047.3 602.2 1047.3 597.4 1043.7C594.998 1041.82 592.051 1040.76 589 1040.7C583.6 1040.7 580.6 1039.7 581.1 1035.3C581.6 1030.9 587.9 1026.6 595.1 1028.6C602.3 1030.6 607.6 1037 607.1 1042.7Z" fill="#FFC069" />
    <path d="M1003.8 132.9C1004.2 126.9 1000.5 121.4 993.7 121.9C986.9 122.4 983.4 124.7 975.8 128.5C971.718 130.533 967.111 131.266 962.6 130.6C941.7 127.6 936.3 128 932 129.6C927.7 131.2 926.3 133.6 927.7 138.5C929.1 143.4 932 146.3 939 148.5C946 150.7 961.5 156.2 970.5 160.4C979.5 164.6 989.9 165.8 997.4 169.6C1004.9 173.4 1024.6 187.1 1031.7 192.9C1038.8 198.7 1041.2 197.4 1042 196.6C1042.8 195.8 1042.7 195.1 1042.3 188.6C1041.91 182.456 1039.75 176.555 1036.1 171.6C1032.2 166.1 1023.8 158.1 1019.2 151.1C1014.6 144.1 1012.3 133.9 1003.8 132.9Z" fill="#FF8C19" />
    <path d="M1019.2 151.1C1014.6 144.1 1012.3 133.9 1003.8 132.9C991 132.6 980.3 138.6 972.5 139.8C966.9 140.6 953.7 140.8 948.3 140.9C942.9 141 941.9 141.6 941.1 142.3C940.3 143 940 144.3 941 144.8L940.6 146.9L948.5 149.7L983.3 162.1L1002 170.9L1024.1 185.1L1039.7 196.6L1042.2 196.4C1042.8 195.6 1042.7 194.5 1042.3 188.6C1041.91 182.456 1039.75 176.555 1036.1 171.6C1032.2 166.1 1023.8 158.1 1019.2 151.1Z" fill="url(#paint5_linear_5_273)" />
    <path d="M1042 196.6C1042.4 196.2 1042.6 195.8 1042.6 194.5C1042.3 197.6 1039 194.6 1036.5 192.3C1034 190 1027.5 181.1 1016 176.3C994.9 167.3 990.7 157.7 968.1 155C957.4 153.8 946.8 147.1 943.5 145.8C940.2 144.5 939.3 144.3 939.4 142.8C939.738 139.566 939.038 136.309 937.4 133.5C935 129.7 930.7 128.7 928 132.7C927.567 133.598 927.317 134.574 927.266 135.57C927.214 136.566 927.362 137.562 927.7 138.5C929 143.4 932 146.3 939 148.5C946 150.7 961.5 156.2 970.5 160.4C979.5 164.6 989.9 165.8 997.4 169.6C1004.9 173.4 1024.6 187.1 1031.7 192.9C1038.8 198.7 1041.2 197.4 1042 196.6Z" fill="#ED5F00" />
    <path d="M1042 196.6C1042.4 196.2 1042.6 195.8 1042.6 194.5C1042.3 197.6 1039 194.6 1036.5 192.3C1034.15 189.589 1031.65 187.018 1029 184.6C1031.2 186.8 1031.8 190.2 1031.9 193C1038.9 198.7 1041.2 197.4 1042 196.6Z" fill="black" />
    <path d="M1046.3 203.2C1045.1 199.6 1045.2 196.5 1045.5 192.5C1045.8 188.5 1044.2 181.7 1036.8 172.6L1033.4 188.9C1039.4 195.8 1042.3 201.8 1042.3 205.6C1042.3 209.4 1042.9 215.6 1046.4 214.8C1049.9 214 1047.5 206.8 1046.3 203.2Z" fill="#FFC619" />
    <path d="M951.8 146.5C954.324 148.113 957.047 149.39 959.9 150.3C963.561 151.478 967.304 152.381 971.1 153C971.4 153 971.5 152.9 971.5 152.7C971 148.5 965.4 145.2 961.3 144.6C957.2 144 952.9 144.7 951.6 146C950.3 147.3 951.6 146.4 951.8 146.5Z" fill="#FF78B9" />
    <path d="M1005.7 145.5C1005.4 148.4 1000.6 150.4 994.9 149.9C989.2 149.4 984.8 146.6 985 143.6C985.2 140.6 988.6 138.8 993 140.8C994.912 141.604 996.935 142.109 999 142.3C1003.4 142.7 1005.9 143.2 1005.7 145.5ZM1013.9 164.6C1015.38 165.466 1016.92 166.234 1018.5 166.9C1021.2 167.9 1022.1 168.7 1021.2 169.9C1020.3 171.1 1016.4 171.4 1012.7 169.6C1009 167.8 1007.1 165.1 1008.1 163.5C1009.1 161.9 1011 162.8 1013.9 164.6ZM1036.5 170.1C1035.38 168.599 1033.74 167.566 1031.9 167.2C1029.1 166.6 1027.8 168 1027.9 169.9C1028 171.8 1030.4 175.1 1035.2 178.6C1040 182.1 1041.3 177.6 1040.4 175.6C1039.5 173.6 1037.8 171.8 1036.5 170.1Z" fill="#EB459F" />
    <path d="M1005.6 102.9C1000.72 102.647 995.843 103.291 991.2 104.8C987.7 106 990.6 110 999.8 112.3C1009 114.6 1019.1 114.1 1022.8 114.1C1026.5 114.1 1026.1 114.3 1028.4 116.8C1030.7 119.3 1032.5 121.2 1032.6 119.1C1032.7 117 1032.2 115.1 1033.8 113.3C1035.4 111.5 1036 110.5 1036 108.9C1036 107.3 1035.4 107.6 1033.5 108.7C1031.66 109.806 1029.75 110.808 1027.8 111.7C1026.9 112 1026.8 111.3 1024.4 109.5C1018.98 105.392 1012.4 103.084 1005.6 102.9Z" fill="#66BCFF" />
    <path d="M986.7 107.2L991.1 106.1L988 103.4" stroke="#66BCFF" stroke-width="2.439" stroke-linecap="round" stroke-linejoin="round" />
    <path d="M997.75 106.045C998.302 106.04 998.747 105.766 998.744 105.435C998.74 105.104 998.29 104.84 997.737 104.846C997.185 104.851 996.74 105.125 996.744 105.456C996.747 105.787 997.198 106.051 997.75 106.045Z" fill="black" />
    <path d="M935.4 135.9C934 133.8 931.8 133.1 930.6 134.2C929.4 135.3 929.4 137.9 930.8 139.9C932.2 141.9 934.3 142.7 935.6 141.6C936.9 140.5 936.7 137.9 935.4 135.9Z" fill="#FF8C19" />
    <path d="M1032.9 181.2C1037.5 184.3 1039.6 186.7 1040.8 191.6" stroke="#FFE75C" stroke-width="1.742" stroke-miterlimit="10" stroke-linecap="round" />
    <path d="M1029 113.5L1031.4 113.2" stroke="black" stroke-width="1.742" stroke-miterlimit="10" stroke-linecap="round" />
    <path d="M960.6 175.9C956.216 176.387 951.951 177.639 948 179.6C945.1 181.2 948.2 184.4 956.8 185.2C965.4 186 974.2 184 977.6 183.6C981 183.2 980.6 183.2 983 185.2C985.4 187.2 987.3 188.6 987.1 186.7C986.9 184.8 986.2 183.1 987.3 181.3C988.4 179.5 988.9 178.5 988.7 177C988.5 175.5 988 175.9 986.4 177.2C984.951 178.516 983.376 179.688 981.7 180.7C980.9 181.1 980.8 180.4 978.4 179.3C972.968 176.334 966.743 175.144 960.6 175.9Z" fill="#3442D9" />
    <path d="M604.7 175.3L589 176.8C587.753 176.91 586.552 177.322 585.5 178C579.9 181.4 578.8 183.7 578.8 183.7L588.1 192.7L606.6 178.1L604.7 175.3Z" fill="#FFE75C" />
    <path d="M549.6 178.7L551.9 176.1C551.9 176.1 564 175 568.6 174.9C573.2 174.8 583.2 179.1 588.6 188.2C594.3 179 602.1 175.8 604.7 175.3L606.6 178.1L587 195L549.6 178.7Z" fill="#FFC619" />
    <path d="M566.6 193.4C566.108 194.704 565.707 196.041 565.4 197.4C565.1 198.7 566 198.7 572.6 198.7H588.1C590 198.8 590.8 197.9 589.8 194.3C595.5 187.8 605.5 181.3 609.2 179C609.261 178.969 609.314 178.925 609.357 178.873C609.4 178.82 609.432 178.759 609.451 178.693C609.47 178.628 609.475 178.559 609.466 178.491C609.457 178.424 609.435 178.359 609.4 178.3L608.5 177.2C608.409 177.147 608.305 177.12 608.2 177.12C608.095 177.12 607.991 177.147 607.9 177.2C600.3 182.2 594 186.7 588.1 192.6C580.1 183.4 573.7 179.8 568.4 177.4C568.128 177.241 567.814 177.171 567.5 177.2L547.5 178.2C547.208 178.2 546.928 178.316 546.722 178.522C546.516 178.728 546.4 179.008 546.4 179.3C546.389 179.495 546.441 179.688 546.55 179.85C546.658 180.013 546.816 180.135 547 180.2C560.1 185.9 566.6 193.4 566.6 193.4Z" fill="#66BCFF" />
    <path d="M566.6 193.4C566.108 194.704 565.707 196.041 565.4 197.4C565.1 198.7 566 198.7 572.6 198.7H585.6C583.9 198.6 583.6 198.2 585.7 194C583.1 190.1 577.1 184.4 568.1 179.5L547 180.2C560.1 185.9 566.6 193.4 566.6 193.4Z" fill="#8CD9FF" />
    <path d="M588.4 190.2L588.1 192.7" stroke="black" stroke-width="1.521" stroke-miterlimit="10" stroke-linecap="round" />
    <path d="M505.7 158.6L505.1 157.6C505 157.5 504.7 157.4 504.6 157.5L503.4 158.2L501.9 155.7L488.6 156C487.559 156.078 486.542 156.349 485.6 156.8C484.456 157.391 483.353 158.059 482.3 158.8C478.5 155.2 474.1 153.4 471.5 153.3C468.9 153.2 457.3 153.3 457.3 153.3L455.6 155H453.4C453.169 155.022 452.953 155.124 452.788 155.288C452.624 155.453 452.522 155.669 452.5 155.9C452.463 156.059 452.483 156.226 452.556 156.372C452.629 156.518 452.75 156.634 452.9 156.7C456.812 158.649 460.472 161.067 463.8 163.9L465.4 165.3L466.1 166.1C467.072 166.93 467.945 167.869 468.7 168.9C468.7 168.9 467.8 171.1 467.5 172.2C467.5 172.4 467.4 172.5 467.4 172.6C467.398 172.717 467.436 172.831 467.509 172.922C467.583 173.014 467.685 173.077 467.8 173.1C468.573 173.363 469.384 173.498 470.2 173.5L473.6 173.7H484.4L486.6 173.9C488.2 174 488.9 173.4 488.3 170.2C493.5 165.1 502.3 160.2 505.6 158.4C505.8 159 505.9 158.8 505.7 158.6Z" fill="#3442D9" />
    <path d="M543.3 128.7L520.6 130.9C518.84 131.074 517.154 131.693 515.7 132.7C508.1 137.6 506.8 141.1 506.8 141.1L522.1 154.2L546.7 132.8L543.3 128.7Z" fill="#FFE75C" />
    <path d="M463.2 133.9L466.1 130.1C466.1 130.1 483.6 128.4 490.3 128.3C497 128.2 512.4 134.3 522.1 147.6C528.7 134.1 539.6 129.4 543.3 128.7L546.7 132.8L520.9 157.6L463.2 133.9Z" fill="#FFC619" />
    <path d="M490.7 155.3C490.7 155.3 489.8 159.3 489.6 161.2C489.4 163.1 490.7 163.2 500.5 163.1H523.2C526 163.2 527 161.9 524.9 156.6C532.2 147.2 545.6 137.6 550.7 134.2C550.767 134.135 550.819 134.057 550.856 133.971C550.892 133.885 550.91 133.793 550.91 133.7C550.91 133.607 550.892 133.515 550.856 133.429C550.819 133.343 550.767 133.265 550.7 133.2L549.3 131.6C549.178 131.494 549.026 131.428 548.866 131.41C548.705 131.393 548.543 131.424 548.4 131.5C538.2 138.9 529.7 145.5 522.1 154.2C508.7 140.8 498.7 135.5 490.5 132C490.087 131.838 489.643 131.77 489.2 131.8L460 133.4C459.798 133.398 459.598 133.44 459.414 133.522C459.229 133.605 459.065 133.726 458.932 133.878C458.799 134.03 458.701 134.209 458.643 134.403C458.586 134.596 458.571 134.8 458.6 135C458.609 135.294 458.71 135.578 458.89 135.812C459.069 136.045 459.318 136.216 459.6 136.3C479.9 144.4 490.7 155.3 490.7 155.3Z" fill="#EB459F" />
    <path d="M490.7 155.3C490.7 155.3 489.8 159.3 489.6 161.2C489.4 163.1 490.7 163.2 500.5 163.1H519.5C517.1 163 516.5 162.3 518.8 156.3C514.4 150.6 504.5 142.3 490.4 135.2L459.6 136.3C479.9 144.4 490.7 155.3 490.7 155.3Z" fill="#FF78B9" />
    <path d="M522 150L522.2 151.9" stroke="black" stroke-width="1.521" stroke-miterlimit="10" stroke-linecap="round" />
    <path d="M1193 1115.1C1195.31 1115.12 1197.6 1114.63 1199.7 1113.67C1201.8 1112.71 1203.66 1111.29 1205.15 1109.52C1206.64 1107.75 1207.73 1105.68 1208.32 1103.45C1208.92 1101.21 1209.01 1098.87 1208.6 1096.6C1204.14 1072.78 1192.07 1051.05 1174.19 1034.69C1156.31 1018.33 1133.6 1008.22 1109.48 1005.88C1085.36 1003.55 1061.13 1009.11 1040.45 1021.74C1019.76 1034.37 1003.74 1053.38 994.8 1075.9C974.79 1071.53 953.984 1072.48 934.456 1078.66C914.927 1084.83 897.359 1096.02 883.5 1111.1C883.19 1111.45 882.988 1111.87 882.917 1112.33C882.846 1112.79 882.91 1113.26 883.1 1113.68C883.291 1114.11 883.6 1114.47 883.99 1114.72C884.381 1114.97 884.836 1115.1 885.3 1115.1H1193Z" fill="#6874F7" />
  </g>
  <defs>
    <linearGradient id="paint0_linear_5_273" x1="269.71" y1="800.4" x2="269.71" y2="913.29" gradientUnits="userSpaceOnUse">
      <stop stop-color="#29CC7A" />
      <stop offset="1" stop-color="#038567" />
    </linearGradient>
    <linearGradient id="paint1_linear_5_273" x1="1512.99" y1="519.46" x2="1503.54" y2="476.33" gradientUnits="userSpaceOnUse">
      <stop stop-color="#FFE75C" />
      <stop offset="1" stop-color="#FFC619" />
    </linearGradient>
    <linearGradient id="paint2_linear_5_273" x1="1441.31" y1="493.59" x2="1426.37" y2="538.11" gradientUnits="userSpaceOnUse">
      <stop stop-color="#FFE75C" />
      <stop offset="1" stop-color="#FFC619" />
    </linearGradient>
    <linearGradient id="paint3_linear_5_273" x1="1170.7" y1="805.19" x2="1126.43" y2="847.49" gradientUnits="userSpaceOnUse">
      <stop stop-color="#D11583" />
      <stop offset="1" stop-color="#EB50A4" />
    </linearGradient>
    <linearGradient id="paint4_linear_5_273" x1="1478.25" y1="129.699" x2="1463.31" y2="91.3881" gradientUnits="userSpaceOnUse">
      <stop stop-color="#66BCFF" />
      <stop offset="1" stop-color="#8CD9FF" />
    </linearGradient>
    <linearGradient id="paint5_linear_5_273" x1="1029.19" y1="175.445" x2="975.378" y2="141.344" gradientUnits="userSpaceOnUse">
      <stop stop-color="#FFC619" />
      <stop offset="1" stop-color="#FFE75C" />
    </linearGradient>
    <clipPath id="clip0_5_273">
      <rect width="1700" height="1200" fill="white" />
    </clipPath>
  </defs>
</svg>
