<svg width="130" height="25" viewBox="0 0 130 25" fill="none" xmlns="http://www.w3.org/2000/svg">
  <path d="M27.5247 2.06243C25.4213 1.09894 23.1723 0.39869 20.8211 0C20.5323 0.51114 20.195 1.19861 19.9624 1.74553C17.4629 1.37751 14.9865 1.37751 12.5331 1.74553C12.3005 1.19861 11.9554 0.51114 11.6641 0C9.31034 0.39869 7.05877 1.1015 4.95546 2.06754C0.713009 8.3443 -0.437046 14.4652 0.137982 20.4991C2.95179 22.5565 5.67868 23.8062 8.35961 24.624C9.02151 23.732 9.61189 22.7839 10.1205 21.7846C9.15188 21.4243 8.22416 20.9796 7.34756 20.4633C7.58015 20.2947 7.80757 20.1183 8.02735 19.9368C13.3739 22.3852 19.1829 22.3852 24.4655 19.9368C24.6879 20.1183 24.9153 20.2947 25.1453 20.4633C24.2662 20.9821 23.3359 21.4268 22.3673 21.7872C22.8759 22.7839 23.4637 23.7346 24.1282 24.6265C26.8116 23.8087 29.5411 22.559 32.3549 20.4991C33.0296 13.5042 31.2023 7.4396 27.5247 2.06243ZM10.8488 16.7883C9.2439 16.7883 7.92769 15.3213 7.92769 13.5349C7.92769 11.7485 9.21576 10.279 10.8488 10.279C12.4819 10.279 13.7981 11.7459 13.77 13.5349C13.7725 15.3213 12.4819 16.7883 10.8488 16.7883ZM21.644 16.7883C20.0391 16.7883 18.7229 15.3213 18.7229 13.5349C18.7229 11.7485 20.011 10.279 21.644 10.279C23.2771 10.279 24.5933 11.7459 24.5652 13.5349C24.5652 15.3213 23.2771 16.7883 21.644 16.7883Z" fill="white" />
  <path d="M43.6636 6.2823H50.6407C52.3224 6.2823 53.7432 6.5455 54.9087 7.0694C56.0716 7.5934 56.9431 8.3243 57.5206 9.2596C58.098 10.195 58.3895 11.2658 58.3895 12.4721C58.3895 13.6529 58.088 14.7237 57.4849 15.6821C56.8818 16.643 55.9641 17.4021 54.7297 17.9618C53.4954 18.5214 51.967 18.8026 50.1396 18.8026H43.6636V6.2823ZM50.0683 15.6208C51.2001 15.6208 52.0716 15.3371 52.6802 14.7723C53.2883 14.2049 53.5924 13.4331 53.5924 12.4543C53.5924 11.547 53.3215 10.8237 52.7797 10.2819C52.2379 9.7401 51.4177 9.4667 50.3211 9.4667H48.1386V15.6208H50.0683Z" fill="white" />
  <path d="M68.8346 18.7872C67.8686 18.5367 66.9971 18.1738 66.2227 17.6959V14.7262C66.8082 15.1786 67.5927 15.5517 68.5768 15.8456C69.5603 16.137 70.5112 16.2826 71.4314 16.2826C71.8606 16.2826 72.1853 16.2264 72.4049 16.1139C72.6245 16.0015 72.7346 15.8661 72.7346 15.7102C72.7346 15.5312 72.6758 15.383 72.5557 15.2629C72.4356 15.1428 72.2029 15.0431 71.8581 14.9588L69.7111 14.4758C68.4818 14.1895 67.6103 13.7934 67.0916 13.2848C66.573 12.7788 66.3146 12.1143 66.3146 11.2914C66.3146 10.5988 66.5398 9.9982 66.9946 9.4845C67.4469 8.9708 68.0908 8.5747 68.9266 8.2961C69.7623 8.015 70.7389 7.8745 71.8606 7.8745C72.8623 7.8745 73.78 7.9818 74.6158 8.1965C75.4511 8.4111 76.1411 8.6846 76.6909 9.0194V11.8281C76.1286 11.4933 75.4848 11.23 74.7485 11.0307C74.0152 10.8339 73.2608 10.7368 72.4843 10.7368C71.3621 10.7368 70.8027 10.9285 70.8027 11.3093C70.8027 11.4882 70.8896 11.6211 71.063 11.7105C71.2369 11.8 71.5566 11.8919 72.0189 11.9891L73.8081 12.3111C74.9761 12.513 75.8476 12.8683 76.4201 13.3743C76.9925 13.8803 77.2785 14.6291 77.2785 15.6207C77.2785 16.7069 76.806 17.5681 75.8577 18.207C74.9093 18.846 73.5654 19.1654 71.8224 19.1654C70.7972 19.1629 69.8005 19.0377 68.8346 18.7872Z" fill="white" />
  <path d="M81.5008 18.4114C80.4761 17.9105 79.7016 17.2307 79.1854 16.372C78.6693 15.5133 78.4084 14.5472 78.4084 13.4738C78.4084 12.4005 78.6768 11.4395 79.2136 10.5936C79.7503 9.7476 80.5374 9.0832 81.5752 8.6001C82.6125 8.1172 83.8519 7.8769 85.2963 7.8769C87.085 7.8769 88.5702 8.2526 89.7507 9.004V12.2778C89.3341 11.9916 88.8486 11.759 88.2937 11.5801C87.7394 11.4012 87.1463 11.3117 86.5126 11.3117C85.4034 11.3117 84.5369 11.5136 83.9107 11.92C83.285 12.3263 82.9704 12.8554 82.9704 13.5122C82.9704 14.1562 83.2745 14.6827 83.8831 15.0967C84.4912 15.5082 85.3727 15.7152 86.5307 15.7152C87.1257 15.7152 87.7138 15.6283 88.2937 15.4571C88.8717 15.2833 89.3698 15.0711 89.7864 14.8207V17.9872C88.4752 18.7743 86.9549 19.1679 85.2245 19.1679C83.768 19.1628 82.5256 18.9123 81.5008 18.4114Z" fill="white" />
  <path d="M94.2132 18.4116C93.1804 17.9107 92.3934 17.2258 91.8516 16.3543C91.3098 15.4828 91.0364 14.5117 91.0364 13.4383C91.0364 12.3649 91.3073 11.4065 91.8516 10.5657C92.3959 9.7249 93.1779 9.0655 94.2052 8.5876C95.2299 8.1097 96.4542 7.872 97.8725 7.872C99.2913 7.872 100.515 8.1097 101.54 8.5876C102.565 9.0655 103.347 9.7198 103.884 10.5554C104.42 11.3912 104.689 12.3496 104.689 13.4357C104.689 14.5091 104.42 15.4803 103.884 16.3517C103.347 17.2233 102.563 17.9082 101.53 18.4091C100.497 18.91 99.2782 19.1605 97.87 19.1605C96.4618 19.1605 95.243 18.9125 94.2132 18.4116ZM99.6491 15.2375C100.083 14.803 100.303 14.228 100.303 13.5124C100.303 12.7968 100.086 12.2269 99.6491 11.8052C99.2144 11.3809 98.6213 11.1688 97.87 11.1688C97.1061 11.1688 96.508 11.3809 96.0708 11.8052C95.6365 12.2294 95.4194 12.7968 95.4194 13.5124C95.4194 14.228 95.6365 14.803 96.0708 15.2375C96.5055 15.6719 97.1061 15.8917 97.87 15.8917C98.6213 15.8892 99.2144 15.6719 99.6491 15.2375Z" fill="white" />
  <path d="M115.438 8.5364V12.4006C114.983 12.1016 114.395 11.9533 113.666 11.9533C112.714 11.9533 111.977 12.2421 111.466 12.8198C110.953 13.3973 110.697 14.2969 110.697 15.5134V18.8052H106.314V8.3396H110.608V11.6671C110.845 10.4506 111.231 9.5536 111.763 8.9734C112.292 8.3959 112.977 8.1071 113.81 8.1071C114.441 8.1071 114.983 8.2502 115.438 8.5364Z" fill="white" />
  <path d="M130 5.9245V18.8051H125.617V16.4615C125.247 17.3433 124.684 18.0154 123.928 18.4754C123.171 18.9329 122.236 19.1629 121.126 19.1629C120.135 19.1629 119.271 18.9227 118.533 18.4397C117.794 17.9566 117.224 17.2947 116.823 16.4539C116.424 15.6131 116.222 14.6624 116.222 13.5992C116.21 12.5028 116.422 11.5189 116.858 10.6474C117.293 9.7759 117.909 9.0961 118.701 8.6079C119.494 8.1198 120.398 7.8745 121.413 7.8745C123.501 7.8745 124.901 8.7817 125.617 10.5937V5.9245H130ZM124.963 15.1658C125.41 14.7314 125.632 14.1666 125.632 13.4765C125.632 12.8095 125.415 12.2651 124.981 11.8485C124.546 11.432 123.95 11.2224 123.202 11.2224C122.463 11.2224 121.873 11.4346 121.431 11.8588C120.989 12.283 120.769 12.8325 120.769 13.5123C120.769 14.1921 120.989 14.7467 121.431 15.176C121.873 15.6054 122.456 15.8201 123.184 15.8201C123.922 15.8175 124.515 15.6003 124.963 15.1658Z" fill="white" />
  <path d="M62.0824 9.4539C63.2891 9.4539 64.2677 8.5752 64.2677 7.4912C64.2677 6.4072 63.2891 5.5284 62.0824 5.5284C60.8757 5.5284 59.8972 6.4072 59.8972 7.4912C59.8972 8.5752 60.8757 9.4539 62.0824 9.4539Z" fill="white" />
  <path d="M59.8953 10.806C61.2346 11.3836 62.8957 11.4092 64.2657 10.806V18.8615H59.8953V10.806Z" fill="white" />
</svg>
